Putnik.ufo
<glyph name="exclam" format="2">
  <advance width="138"/>
  <unicode hex="0021"/>
  <outline>
    <contour>
      <point x="71.2852" y="507.271" type="curve"/>
      <point x="71.2852" y="503.914" type="line"/>
      <point x="66.248" y="505.594" type="line"/>
      <point x="40.5449" y="472.016" type="line"/>
      <point x="42.7441" y="451.869" type="line"/>
      <point x="30.3037" y="448.995"/>
      <point x="37.0859" y="434.389"/>
      <point x="42.7441" y="428.365" type="curve"/>
      <point x="49.459" y="430.045" type="line"/>
      <point x="51.1387" y="428.365" type="line"/>
      <point x="49.459" y="403.184" type="line"/>
      <point x="49.459" y="401.504" type="line"/>
      <point x="49.459" y="399.826" type="line"/>
      <point x="46.1016" y="388.072" type="line"/>
      <point x="52.1455" y="384.491"/>
      <point x="56.4766" y="377.974"/>
      <point x="52.8164" y="371.285" type="curve"/>
      <point x="52.8164" y="369.605" type="line"/>
      <point x="61.2109" y="346.102" type="line"/>
      <point x="52.8164" y="342.744" type="line"/>
      <point x="52.8164" y="322.598" type="line"/>
      <point x="52.8164" y="315.883" type="line"/>
      <point x="61.0928" y="302.238"/>
      <point x="53.7734" y="252.482"/>
      <point x="52.8164" y="237.158" type="curve"/>
      <point x="56.1738" y="237.158" type="line"/>
      <point x="52.8164" y="223.729" type="line"/>
      <point x="57.8535" y="222.049" type="line"/>
      <point x="53.7568" y="206.849"/>
      <point x="57.5352" y="123.235"/>
      <point x="62.8906" y="108.252" type="curve"/>
      <point x="66.248" y="106.574" type="line"/>
      <point x="83.0371" y="106.574" type="line"/>
      <point x="86.3945" y="108.252" type="line"/>
      <point x="97.0889" y="123.055"/>
      <point x="110.251" y="198.541"/>
      <point x="109.898" y="217.014" type="curve"/>
      <point x="96.4336" y="216.659"/>
      <point x="91.7168" y="211.341"/>
      <point x="83.0371" y="201.902" type="curve"/>
      <point x="83.9434" y="235.48" type="line"/>
      <point x="83.4551" y="320.92" type="line"/>
      <point x="83.0371" y="371.285" type="line"/>
      <point x="83.0371" y="372.963" type="line"/>
      <point x="78" y="376.32" type="line"/>
      <point x="78" y="378" type="line"/>
      <point x="86.4443" y="384.858"/>
      <point x="83.7246" y="407.026"/>
      <point x="78" y="414.936" type="curve"/>
      <point x="83.0371" y="416.613" type="line"/>
      <point x="82.6172" y="433.193"/>
      <point x="82.6494" y="450.351"/>
      <point x="83.7578" y="466.979" type="curve" smooth="yes"/>
      <point x="84.2949" y="474.846"/>
      <point x="87.8213" y="482.512"/>
      <point x="86.5957" y="490.484" type="curve" smooth="yes"/>
      <point x="85.2021" y="499.645"/>
      <point x="79.9307" y="504.991"/>
    </contour>
    <contour>
      <point x="74.6426" y="63.9238" type="line"/>
      <point x="76.3203" y="57.209" type="line"/>
      <point x="74.6426" y="57.209" type="line"/>
      <point x="72.9629" y="62.2441" type="line"/>
      <point x="66.248" y="62.2441" type="line"/>
      <point x="64.7705" y="52.9014"/>
      <point x="56.8965" y="45.7949"/>
      <point x="49.459" y="40.4199" type="curve"/>
      <point x="47.5449" y="27.3379"/>
      <point x="40.376" y="19.5928"/>
      <point x="56.1738" y="11.8789" type="curve"/>
      <point x="44.2871" y="-11.8906"/>
      <point x="90.624" y="2.00977"/>
      <point x="91.4297" y="1.80664" type="curve"/>
      <point x="96.4668" y="5.16406" type="line"/>
      <point x="99.8242" y="37.0625" type="line"/>
      <point x="86.5781" y="41.1377"/>
      <point x="84.8496" y="44.6963"/>
      <point x="86.3945" y="58.8867" type="curve"/>
    </contour>
  </outline>
</glyph>
<glyph name="quotedbl" format="2">
  <advance width="188"/>
  <unicode hex="0022"/>
  <outline>
    <contour>
      <point x="137.521" y="504.414" type="curve" smooth="yes"/>
      <point x="134.782" y="504.215"/>
      <point x="131.971" y="501.95"/>
      <point x="128.963" y="496.088" type="curve"/>
      <point x="123.926" y="497.768" type="line"/>
      <point x="117.211" y="484.336" type="line"/>
      <point x="115.533" y="484.336" type="line"/>
      <point x="113.854" y="487.695" type="line"/>
      <point x="108.665" y="482.403"/>
      <point x="103.193" y="476.533"/>
      <point x="107.139" y="469.227" type="curve"/>
      <point x="93.707" y="445.723" type="line"/>
      <point x="95.3867" y="440.686" type="line"/>
      <point x="105.459" y="440.686" type="line"/>
      <point x="107.139" y="440.686" type="line"/>
      <point x="112.174" y="439.008" type="line"/>
      <point x="117.211" y="425.576" type="line"/>
      <point x="122.248" y="422.219" type="line"/>
      <point x="118.252" y="421.527"/>
      <point x="120.301" y="414.508"/>
      <point x="119.646" y="410.365" type="curve" smooth="yes"/>
      <point x="117.581" y="397.205"/>
      <point x="117.161" y="382.261"/>
      <point x="130.643" y="375.211" type="curve"/>
      <point x="132.32" y="381.926" type="line"/>
      <point x="137.357" y="380.248" type="line"/>
      <point x="134" y="392" type="line"/>
      <point x="139.037" y="408.789" type="line"/>
      <point x="135.68" y="407.109" type="line"/>
      <point x="135.68" y="408.789" type="line"/>
      <point x="147.163" y="422.543"/>
      <point x="164.605" y="445.214"/>
      <point x="169.256" y="462.512" type="curve"/>
      <point x="164.219" y="460.832" type="line"/>
      <point x="175.971" y="477.621" type="line"/>
      <point x="157.504" y="477.621" type="line"/>
      <point x="155.824" y="486.016" type="line"/>
      <point x="160.861" y="482.658" type="line"/>
      <point x="159.184" y="491.053" type="line"/>
      <point x="151.05" y="491.947"/>
      <point x="144.521" y="504.924"/>
    </contour>
    <contour>
      <point x="60.4805" y="497.35" type="curve" smooth="yes"/>
      <point x="59.5039" y="497.376"/>
      <point x="58.5039" y="497.312"/>
      <point x="57.4941" y="497.146" type="curve" smooth="yes"/>
      <point x="47.1016" y="495.46"/>
      <point x="38.0869" y="482.239"/>
      <point x="36.627" y="472.584" type="curve"/>
      <point x="21.416" y="470.7"/>
      <point x="32.4619" y="448.679"/>
      <point x="34.9473" y="440.686" type="curve"/>
      <point x="31.5898" y="442.365" type="line"/>
      <point x="43.3418" y="428.934" type="line"/>
      <point x="39.9844" y="415.504" type="line"/>
      <point x="35.334" y="412.278"/>
      <point x="33.2178" y="403.954"/>
      <point x="38.3047" y="400.395" type="curve"/>
      <point x="35.2988" y="394.398"/>
      <point x="40.8574" y="385.082"/>
      <point x="48.3789" y="386.963" type="curve" smooth="yes"/>
      <point x="59.4082" y="389.721"/>
      <point x="57.6455" y="413.608"/>
      <point x="63.4883" y="412.146" type="curve"/>
      <point x="61.8086" y="420.541" type="line"/>
      <point x="66.8457" y="417.182" type="line"/>
      <point x="63.4883" y="422.219" type="line"/>
      <point x="83.6846" y="428.54"/>
      <point x="81.5859" y="452.751"/>
      <point x="90.3496" y="467.549" type="curve"/>
      <point x="84.0195" y="468.765"/>
      <point x="78.6299" y="471.188"/>
      <point x="76.918" y="477.621" type="curve"/>
      <point x="71.8828" y="477.621" type="line"/>
      <point x="71.8828" y="479.301" type="line"/>
      <point x="77.2383" y="488.369"/>
      <point x="69.9209" y="497.098"/>
    </contour>
  </outline>
</glyph>
<glyph name="parenleft" format="2">
  <advance width="198"/>
  <unicode hex="0028"/>
  <outline>
    <contour>
      <point x="38.2832" y="206.332" type="curve"/>
      <point x="38.2832" y="204.317" type="line"/>
      <point x="31.5137" y="197.875"/>
      <point x="35.2412" y="175.271"/>
      <point x="40.2979" y="168.054" type="curve"/>
      <point x="36.2695" y="151.938" type="line"/>
      <point x="46.3418" y="147.907" type="line"/>
      <point x="40.2979" y="149.923" type="line"/>
      <point x="40.2979" y="137.835" type="line"/>
      <point x="46.3418" y="137.835" type="line"/>
      <point x="49.3242" y="127.535"/>
      <point x="52.6074" y="111.833"/>
      <point x="64.4736" y="109.63" type="curve"/>
      <point x="66.4883" y="101.571" type="line"/>
      <point x="78.5762" y="105.601" type="line"/>
      <point x="88.6484" y="77.3955" type="line"/>
      <point x="118.869" y="47.1768" type="line"/>
      <point x="124.912" y="29.0449" type="line"/>
      <point x="134.985" y="23.001" type="line"/>
      <point x="137.544" y="6.15527"/>
      <point x="166.07" y="-22.3467"/>
      <point x="183.336" y="-19.3066" type="curve"/>
      <point x="165.205" y="6.88379" type="line"/>
      <point x="151.103" y="16.957" type="line"/>
      <point x="137" y="65.3076" type="line"/>
      <point x="143.043" y="67.3232" type="line"/>
      <point x="118.869" y="91.498" type="line"/>
      <point x="118.869" y="103.586" type="line"/>
      <point x="98.9238" y="115.761"/>
      <point x="107.546" y="149.266"/>
      <point x="82.6055" y="162.011" type="curve"/>
      <point x="82.6055" y="164.025" type="line"/>
      <point x="89.3145" y="175.932"/>
      <point x="78.1729" y="199.167"/>
      <point x="76.5615" y="212.376" type="curve"/>
      <point x="80.5908" y="210.361" type="line"/>
      <point x="80.2881" y="220.27"/>
      <point x="77.4277" y="227.584"/>
      <point x="68.5029" y="232.522" type="curve"/>
      <point x="72.5312" y="272.815" type="line"/>
      <point x="79.0195" y="274.046"/>
      <point x="82.9668" y="279.06"/>
      <point x="74.5459" y="280.873" type="curve"/>
      <point x="74.5459" y="282.888" type="line"/>
      <point x="80.5908" y="292.961" type="line"/>
      <point x="72.5312" y="294.976" type="line"/>
      <point x="83.7539" y="316.495"/>
      <point x="95.5996" y="347.159"/>
      <point x="96.707" y="371.531" type="curve"/>
      <point x="98.7217" y="371.531" type="line"/>
      <point x="98.7217" y="367.503" type="line"/>
      <point x="100.736" y="367.503" type="line"/>
      <point x="120.883" y="407.795" type="line"/>
      <point x="124.912" y="405.779" type="line"/>
      <point x="128.941" y="413.839" type="line"/>
      <point x="124.912" y="419.883" type="line"/>
      <point x="132.971" y="417.867" type="line"/>
      <point x="141.029" y="427.94" type="line"/>
      <point x="137" y="433.985" type="line"/>
      <point x="137" y="436" type="line"/>
      <point x="145.059" y="436" type="line"/>
      <point x="145.059" y="438.015" type="line"/>
      <point x="141.029" y="440.028" type="line"/>
      <point x="147.073" y="450.103" type="line"/>
      <point x="151.103" y="448.088" type="line"/>
      <point x="151.103" y="462.19" type="line"/>
      <point x="169.233" y="480.321" type="line"/>
      <point x="165.205" y="488.38" type="line"/>
      <point x="169.233" y="486.364" type="line"/>
      <point x="169.233" y="488.38" type="line"/>
      <point x="165.205" y="500.467" type="line"/>
      <point x="141.029" y="490.395" type="line"/>
      <point x="116.854" y="454.131" type="line"/>
      <point x="113.731" y="433.381"/>
      <point x="96.7275" y="406.302"/>
      <point x="78.5762" y="395.707" type="curve"/>
      <point x="80.5908" y="389.663" type="line"/>
      <point x="67.5557" y="382.152"/>
      <point x="58.8721" y="356.679"/>
      <point x="52.3857" y="343.327" type="curve"/>
      <point x="52.3857" y="349.37" type="line"/>
      <point x="46.584" y="344.549"/>
      <point x="38.3438" y="331.968"/>
      <point x="44.3271" y="325.195" type="curve"/>
      <point x="38.2832" y="303.034" type="line"/>
      <point x="42.3125" y="292.961" type="line"/>
      <point x="36.2695" y="294.976" type="line"/>
      <point x="40.2979" y="288.932" type="line"/>
      <point x="40.2979" y="286.917" type="line"/>
      <point x="40.2979" y="284.903" type="line"/>
      <point x="36.6514" y="281.769"/>
      <point x="36.6514" y="279.979"/>
      <point x="40.2979" y="276.844" type="curve"/>
      <point x="40.2979" y="274.829" type="line"/>
      <point x="31.0312" y="261.599"/>
      <point x="27.3242" y="219.123"/>
    </contour>
  </outline>
</glyph>
<glyph name="comma" format="2">
  <advance width="148"/>
  <unicode hex="002C"/>
  <outline>
    <contour>
      <point x="54.9414" y="7.51758" type="curve"/>
      <point x="48.8975" y="-24.7168" type="line"/>
      <point x="38.8252" y="-40.833" type="line"/>
      <point x="44.8623" y="-40.833"/>
      <point x="43.3955" y="-45.7705"/>
      <point x="42.8535" y="-50.9062" type="curve"/>
      <point x="40.8398" y="-44.8633" type="line"/>
      <point x="38.8252" y="-44.8633" type="line"/>
      <point x="34.7949" y="-69.0381" type="line"/>
      <point x="44.8682" y="-73.0684" type="line"/>
      <point x="46.8828" y="-67.0234" type="line"/>
      <point x="55.6709" y="-65.2373"/>
      <point x="66.7227" y="-36.2217"/>
      <point x="67.0293" y="-26.7305" type="curve"/>
      <point x="69.0439" y="-26.7305" type="line"/>
      <point x="71.0586" y="-30.7607" type="line"/>
      <point x="95.2344" y="-4.57031" type="line"/>
      <point x="101.141" y="12.7471"/>
      <point x="106.929" y="20.3975"/>
      <point x="97.249" y="37.7363" type="curve"/>
      <point x="91.2041" y="33.707" type="line"/>
      <point x="83.1465" y="33.707" type="line"/>
      <point x="81.1318" y="69.9707" type="line"/>
      <point x="65.0156" y="74" type="line"/>
      <point x="63" y="74" type="line"/>
      <point x="42.8535" y="47.8096" type="line"/>
      <point x="11.9551" y="46.0137"/>
      <point x="36.5283" y="10.4834"/>
    </contour>
  </outline>
</glyph>
<glyph name="hyphen" format="2">
  <advance width="178"/>
  <unicode hex="002D"/>
  <outline>
    <contour>
      <point x="119.373" y="312.264" type="line"/>
      <point x="97.5469" y="297.154" type="line"/>
      <point x="89.3262" y="298.246"/>
      <point x="74.4863" y="294.39"/>
      <point x="72.3652" y="285.402" type="curve"/>
      <point x="60.6143" y="285.402" type="line"/>
      <point x="60.6143" y="280.208"/>
      <point x="57.668" y="281.898"/>
      <point x="53.8975" y="283.723" type="curve"/>
      <point x="55.5762" y="277.008" type="line"/>
      <point x="48.9268" y="275.044"/>
      <point x="44.7148" y="273.659"/>
      <point x="42.1445" y="266.934" type="curve"/>
      <point x="35.4307" y="268.613" type="line"/>
      <point x="33.751" y="256.861" type="line"/>
      <point x="28.7148" y="251.824" type="line"/>
      <point x="33.751" y="241.752" type="line"/>
      <point x="62.291" y="255.182" type="line"/>
      <point x="92.5098" y="261.898" type="line"/>
      <point x="109.299" y="278.686" type="line"/>
      <point x="121.382" y="280.392"/>
      <point x="134.26" y="300.446"/>
      <point x="146.234" y="292.117" type="curve"/>
      <point x="152.949" y="298.832" type="line"/>
      <point x="156.307" y="295.475" type="line"/>
      <point x="159.664" y="308.906" type="line"/>
      <point x="147.912" y="312.264" type="line"/>
      <point x="146.234" y="307.227" type="line"/>
      <point x="129.445" y="312.264" type="line"/>
      <point x="127.768" y="312.264" type="line"/>
      <point x="121.052" y="312.264" type="line"/>
    </contour>
    <contour>
      <point x="126.199" y="263.992" type="curve" smooth="yes"/>
      <point x="115.921" y="264.363"/>
      <point x="100.085" y="255.324"/>
      <point x="99.2266" y="248.467" type="curve"/>
      <point x="97.5469" y="248.467" type="line"/>
      <point x="97.5469" y="251.824" type="line"/>
      <point x="95.8691" y="251.824" type="line"/>
      <point x="85.7949" y="246.789" type="line"/>
      <point x="65.6484" y="228.32" type="line"/>
      <point x="58.9346" y="230" type="line"/>
      <point x="53.8975" y="221.605" type="line"/>
      <point x="40.4678" y="214.891" type="line"/>
      <point x="40.6133" y="210.81"/>
      <point x="35.4111" y="201.892"/>
      <point x="42.1445" y="203.139" type="curve"/>
      <point x="40.4678" y="198.102" type="line"/>
      <point x="48.8613" y="199.779" type="line"/>
      <point x="48.8613" y="198.102" type="line"/>
      <point x="43.8242" y="194.744" type="line"/>
      <point x="55.5762" y="194.744" type="line"/>
      <point x="77.4014" y="208.174" type="line"/>
      <point x="75.7227" y="213.211" type="line"/>
      <point x="88.6016" y="211.019"/>
      <point x="115.107" y="223.686"/>
      <point x="119.373" y="236.715" type="curve"/>
      <point x="129.445" y="235.037" type="line"/>
      <point x="157.986" y="255.182" type="line"/>
      <point x="153.319" y="259.267"/>
      <point x="138.699" y="270.323"/>
      <point x="136.16" y="258.541" type="curve"/>
      <point x="134.482" y="258.541" type="line"/>
      <point x="133.394" y="262.262"/>
      <point x="130.222" y="263.848"/>
    </contour>
  </outline>
</glyph>
<glyph name="period" format="2">
  <advance width="169"/>
  <unicode hex="002E"/>
  <outline>
    <contour>
      <point x="53.6787" y="6.03027" type="curve"/>
      <point x="55.6934" y="6.03027" type="line"/>
      <point x="59.7217" y="10.0596" type="line"/>
      <point x="73.8242" y="-10.0879" type="line"/>
      <point x="75.8389" y="-10.0879" type="line"/>
      <point x="77.8535" y="-6.05762" type="line"/>
      <point x="83.8975" y="-10.0879" type="line"/>
      <point x="98" y="2" type="line"/>
      <point x="105.939" y="16.2666"/>
      <point x="118.975" y="38.0625"/>
      <point x="89.9414" y="40.2783" type="curve"/>
      <point x="91.8213" y="55.5547"/>
      <point x="88.1426" y="66.5049"/>
      <point x="71.8096" y="70.4971" type="curve"/>
      <point x="61.1895" y="60.583"/>
      <point x="51.4414" y="48.6914"/>
      <point x="47.6338" y="34.2354" type="curve"/>
      <point x="41.5908" y="36.249" type="line"/>
      <point x="41.6006" y="22.4443"/>
      <point x="44.8721" y="16.5312"/>
    </contour>
  </outline>
</glyph>
<glyph name="two" format="2">
  <advance width="364"/>
  <unicode hex="0032"/>
  <outline>
    <contour>
      <point x="162" y="517" type="line"/>
      <point x="157.854" y="514.928" type="line"/>
      <point x="151.634" y="492.118" type="line"/>
      <point x="147.488" y="496.265" type="line"/>
      <point x="145.414" y="496.265" type="line"/>
      <point x="120.532" y="461.017" type="line"/>
      <point x="108.092" y="446.502" type="line"/>
      <point x="101.871" y="429.915" type="line"/>
      <point x="93.5771" y="431.989" type="line"/>
      <point x="95.6514" y="421.621" type="line"/>
      <point x="87.3564" y="415.4" type="line"/>
      <point x="89.4307" y="409.18" type="line"/>
      <point x="78.6914" y="405.99"/>
      <point x="76.9258" y="398.725"/>
      <point x="79.0625" y="388.447" type="curve"/>
      <point x="57.4023" y="387.37"/>
      <point x="58.3291" y="363.095"/>
      <point x="58.3291" y="346.977" type="curve"/>
      <point x="60.4014" y="346.977" type="line"/>
      <point x="60.4014" y="351.125" type="line"/>
      <point x="62.4756" y="351.125" type="line"/>
      <point x="72.8418" y="340.757" type="line"/>
      <point x="81.1396" y="350.901"/>
      <point x="95.3115" y="355.179"/>
      <point x="95.6514" y="369.786" type="curve"/>
      <point x="107.322" y="375.892"/>
      <point x="116.487" y="394.723"/>
      <point x="120.532" y="407.108" type="curve"/>
      <point x="124.679" y="405.034" type="line"/>
      <point x="122.606" y="413.328" type="line"/>
      <point x="128.827" y="413.328" type="line"/>
      <point x="131.22" y="416.654"/>
      <point x="134.133" y="422.231"/>
      <point x="138.07" y="423.943" type="curve" smooth="yes"/>
      <point x="151.692" y="429.866"/>
      <point x="159.642" y="393.906"/>
      <point x="172.369" y="400.888" type="curve"/>
      <point x="174.441" y="400.888" type="line"/>
      <point x="172.369" y="392.594" type="line"/>
      <point x="182.735" y="380.152" type="line"/>
      <point x="186.882" y="382.227" type="line"/>
      <point x="202.322" y="367.712" type="line"/>
      <point x="216.345" y="369.903"/>
      <point x="212.056" y="377.624"/>
      <point x="210.617" y="388.447" type="curve"/>
      <point x="202.322" y="384.299" type="line"/>
      <point x="200.25" y="384.299" type="line"/>
      <point x="198.068" y="399.509"/>
      <point x="181.787" y="414.101"/>
      <point x="170.295" y="423.695" type="curve"/>
      <point x="176.516" y="425.77" type="line"/>
      <point x="199.102" y="415.4" type="line"/>
      <point x="218.617" y="398.813" type="line"/>
      <point x="224.837" y="400.888" type="line"/>
      <point x="240.572" y="373.933" type="line"/>
      <point x="246.793" y="376.007" type="line"/>
      <point x="246.793" y="359.418" type="line"/>
      <point x="238.498" y="359.418" type="line"/>
      <point x="218.352" y="304.391" type="line"/>
      <point x="210.272" y="282.849" type="line"/>
      <point x="168.59" y="219.378" type="line"/>
      <point x="172.735" y="219.378" type="line"/>
      <point x="166.472" y="212.809"/>
      <point x="164.566" y="207.564"/>
      <point x="166.516" y="198.645" type="curve"/>
      <point x="153.854" y="179.984" type="line"/>
      <point x="131.414" y="144.734" type="line"/>
      <point x="129.34" y="144.734" type="line"/>
      <point x="129.34" y="150.954" type="line"/>
      <point x="127.268" y="150.954" type="line"/>
      <point x="118.973" y="117.778" type="line"/>
      <point x="116.898" y="117.778" type="line"/>
      <point x="116.898" y="121.927" type="line"/>
      <point x="114.827" y="121.927" type="line"/>
      <point x="116.898" y="111.559" type="line"/>
      <point x="116.898" y="109.486" type="line"/>
      <point x="100.532" y="95.3379" type="line"/>
      <point x="100.532" y="82.8975" type="line"/>
      <point x="97.0176" y="66.3105" type="line"/>
      <point x="99.0918" y="62.1641" type="line"/>
      <point x="94.9453" y="55.9443" type="line"/>
      <point x="78.3564" y="43.5039" type="line"/>
      <point x="80.4307" y="35.209" type="line"/>
      <point x="70.7559" y="32.251"/>
      <point x="66.7969" y="22.7295"/>
      <point x="57.542" y="18.9297" type="curve" smooth="yes"/>
      <point x="47.0234" y="14.6123"/>
      <point x="33.1982" y="18.6777"/>
      <point x="23.3584" y="13.834" type="curve" smooth="yes"/>
      <point x="2.26074" y="3.45312"/>
      <point x="27.6934" y="-25.1133"/>
      <point x="38.9609" y="-31.1406" type="curve"/>
      <point x="38.9609" y="-26.9941" type="line"/>
      <point x="45.1807" y="-31.1406" type="line"/>
      <point x="47.2549" y="-31.1406" type="line"/>
      <point x="53.4756" y="-29.0684" type="line"/>
      <point x="54.9072" y="-20.4766"/>
      <point x="65.7617" y="-11.8545"/>
      <point x="74.2109" y="-8.33301" type="curve" smooth="yes"/>
      <point x="83.4365" y="-4.48926"/>
      <point x="89.0615" y="-12.8613"/>
      <point x="90.7969" y="-4.1875" type="curve"/>
      <point x="159.221" y="-10.4072" type="line"/>
      <point x="161.295" y="-4.1875" type="line"/>
      <point x="182.03" y="-2.11328" type="line"/>
      <point x="202.763" y="-0.0390625" type="line"/>
      <point x="202.763" y="-4.1875" type="line"/>
      <point x="204.837" y="-4.1875" type="line"/>
      <point x="204.837" y="2.0332" type="line"/>
      <point x="206.911" y="2.0332" type="line"/>
      <point x="206.911" y="-11.1025"/>
      <point x="222.771" y="-3.66992"/>
      <point x="223.498" y="-0.0390625" type="curve"/>
      <point x="230.044" y="-5.14453"/>
      <point x="233.519" y="-3.74316"/>
      <point x="235.938" y="4.10742" type="curve"/>
      <point x="238.013" y="4.10742" type="line"/>
      <point x="238.013" y="-6.25879" type="line"/>
      <point x="244.233" y="-0.0390625" type="line"/>
      <point x="246.305" y="-0.0390625" type="line"/>
      <point x="244.233" y="-8.33301" type="line"/>
      <point x="279.48" y="-6.25879" type="line"/>
      <point x="273.261" y="4.10742" type="line"/>
      <point x="240.085" y="16.5479" type="line"/>
      <point x="229.719" y="20.6943" type="line"/>
      <point x="223.498" y="18.6221" type="line"/>
      <point x="221.424" y="24.8428" type="line"/>
      <point x="213.132" y="26.9141" type="line"/>
      <point x="206.911" y="24.8428" type="line"/>
      <point x="206.911" y="28.9883" type="line"/>
      <point x="179.295" y="26.2803"/>
      <point x="141.239" y="66.6328"/>
      <point x="119.827" y="43.5039" type="curve"/>
      <point x="128.119" y="26.9141" type="line"/>
      <point x="101.166" y="24.8428" type="line"/>
      <point x="107.258" y="41.3906"/>
      <point x="112.703" y="57.2109"/>
      <point x="130.193" y="64.2363" type="curve"/>
      <point x="128.119" y="72.5312" type="line"/>
      <point x="136.414" y="76.6768" type="line"/>
      <point x="136.414" y="78.751" type="line"/>
      <point x="159" y="136.441" type="line"/>
      <point x="161.074" y="136.441" type="line"/>
      <point x="161.074" y="132.293" type="line"/>
      <point x="163.148" y="132.293" type="line"/>
      <point x="185.735" y="171.689" type="line"/>
      <point x="198.167" y="186.741" type="line"/>
      <point x="220.983" y="229.746" type="line"/>
      <point x="220.983" y="231.818" type="line"/>
      <point x="216.837" y="229.746" type="line"/>
      <point x="216.837" y="231.818" type="line"/>
      <point x="223.058" y="233.893" type="line"/>
      <point x="220.983" y="238.039" type="line"/>
      <point x="231.607" y="241.134"/>
      <point x="241.216" y="273.003"/>
      <point x="239.864" y="283.655" type="curve"/>
      <point x="246.085" y="281.581" type="line"/>
      <point x="249.475" y="305.323"/>
      <point x="274.1" y="357.906"/>
      <point x="287.969" y="378.078" type="curve"/>
      <point x="292.114" y="398.813" type="line"/>
      <point x="279.674" y="402.96" type="line"/>
      <point x="263.085" y="382.227" type="line"/>
      <point x="261.013" y="390.52" type="line"/>
      <point x="258.938" y="390.52" type="line"/>
      <point x="248.864" y="386.373" type="line"/>
      <point x="246.793" y="386.373" type="line"/>
      <point x="246.498" y="398.813" type="line"/>
      <point x="272.437" y="401.776"/>
      <point x="243.176" y="433.625"/>
      <point x="228.132" y="438.21" type="curve"/>
      <point x="221.911" y="446.502" type="line"/>
      <point x="220.664" y="454.639"/>
      <point x="217.505" y="458.816"/>
      <point x="209.471" y="461.017" type="curve"/>
      <point x="213.617" y="465.163" type="line"/>
      <point x="186.882" y="502.484" type="line"/>
      <point x="182.735" y="500.413" type="line"/>
      <point x="172.369" y="517" type="line"/>
      <point x="168.221" y="517" type="line"/>
      <point x="168.221" y="512.854" type="line"/>
      <point x="166.148" y="512.854" type="line"/>
    </contour>
    <contour>
      <point x="235.938" y="62.1641" type="line"/>
      <point x="223.498" y="55.9443" type="line"/>
      <point x="226.347" y="52.1445"/>
      <point x="230.266" y="48.0312"/>
      <point x="223.498" y="49.7236" type="curve"/>
      <point x="226.843" y="42.6982"/>
      <point x="231.803" y="34.4961"/>
      <point x="240.085" y="37.2832" type="curve"/>
      <point x="242.159" y="31.0625" type="line"/>
      <point x="246.305" y="33.1348" type="line"/>
      <point x="273.261" y="18.6221" type="line"/>
      <point x="279.48" y="20.6943" type="line"/>
      <point x="277.409" y="14.4736" type="line"/>
      <point x="296.07" y="4.10742" type="line"/>
      <point x="314.73" y="2.0332" type="line"/>
      <point x="325.098" y="-14.5537" type="line"/>
      <point x="329.243" y="4.10742" type="line"/>
      <point x="320.951" y="12.4023" type="line"/>
      <point x="314.73" y="6.18164" type="line"/>
      <point x="312.656" y="16.5479" type="line"/>
      <point x="291.922" y="24.8428" type="line"/>
      <point x="293.996" y="31.0625" type="line"/>
      <point x="267.04" y="39.3555" type="line"/>
      <point x="269.114" y="43.5039" type="line"/>
      <point x="258.746" y="43.5039" type="line"/>
      <point x="256.674" y="43.5039" type="line"/>
      <point x="244.233" y="62.1641" type="line"/>
      <point x="240.085" y="58.0156" type="line"/>
      <point x="238.013" y="58.0156" type="line"/>
      <point x="235.938" y="58.0156" type="line"/>
    </contour>
  </outline>
</glyph>
<glyph name="four" format="2">
  <advance width="352"/>
  <unicode hex="0034"/>
  <outline>
    <contour>
      <point x="116.854" y="512.91" type="line"/>
      <point x="110.634" y="508.763" type="line"/>
      <point x="99.7832" y="471.441" type="line"/>
      <point x="96.1191" y="450.707" type="line"/>
      <point x="96.1191" y="434.119" type="line"/>
      <point x="84.1123" y="425.992"/>
      <point x="78.0371" y="398.166"/>
      <point x="79.5322" y="384.356" type="curve"/>
      <point x="71.2383" y="378.137" type="line"/>
      <point x="57.7568" y="345.553" type="line"/>
      <point x="40.3037" y="299.384" type="line"/>
      <point x="23.5488" y="276.537" type="line"/>
      <point x="31.8428" y="280.685" type="line"/>
      <point x="0.741211" y="239.215" type="line"/>
      <point x="0.741211" y="237.143" type="line"/>
      <point x="4.8877" y="228.848" type="line"/>
      <point x="15.2549" y="230.922" type="line"/>
      <point x="17.3281" y="224.701" type="line"/>
      <point x="44.2832" y="243.362" type="line"/>
      <point x="46.3564" y="243.362" type="line"/>
      <point x="50.0654" y="239.715"/>
      <point x="51.8945" y="241.422"/>
      <point x="54.6504" y="245.436" type="curve"/>
      <point x="63.624" y="244.654"/>
      <point x="82.5713" y="250.241"/>
      <point x="87.8262" y="257.876" type="curve"/>
      <point x="145.882" y="255.803" type="line"/>
      <point x="145.882" y="264.097" type="line"/>
      <point x="147.956" y="264.097" type="line"/>
      <point x="150.029" y="259.949" type="line"/>
      <point x="156.249" y="264.097" type="line"/>
      <point x="154.176" y="259.949" type="line"/>
      <point x="181.131" y="270.316" type="line"/>
      <point x="195.23" y="260.267"/>
      <point x="212.832" y="264.642"/>
      <point x="229.188" y="268.244" type="curve"/>
      <point x="235.716" y="247.184"/>
      <point x="233.102" y="221.118"/>
      <point x="231.455" y="199.819" type="curve" smooth="yes"/>
      <point x="229.181" y="170.383"/>
      <point x="228.267" y="140.03"/>
      <point x="226.978" y="110.662" type="curve" smooth="yes"/>
      <point x="226.073" y="90.0517"/>
      <point x="242.362" y="63.4854"/>
      <point x="235.901" y="43.0039" type="curve"/>
      <point x="240.074" y="13.1025" type="line"/>
      <point x="219.212" y="1.37695" type="line"/>
      <point x="208.492" y="6.00195"/>
      <point x="176.865" y="2.2207"/>
      <point x="187.456" y="-16.1904" type="curve" smooth="yes"/>
      <point x="196.536" y="-31.9756"/>
      <point x="241.644" y="-32.4932"/>
      <point x="256.814" y="-29.0322" type="curve"/>
      <point x="257.681" y="-22.873" type="line"/>
      <point x="254.439" y="-16.1357" type="line"/>
      <point x="260.021" y="-21.1074" type="line"/>
      <point x="262.074" y="-21.3965" type="line"/>
      <point x="258.835" y="-14.6592" type="line"/>
      <point x="259.123" y="-12.6064" type="line"/>
      <point x="276.991" y="-4.64844" type="line"/>
      <point x="290.648" y="4.03125" type="line"/>
      <point x="301.649" y="3.2832"/>
      <point x="313.993" y="5.53223"/>
      <point x="317.596" y="16.9961" type="curve"/>
      <point x="323.467" y="14.0762" type="line"/>
      <point x="327.862" y="15.5527" type="line"/>
      <point x="343.969" y="16.2441" type="line"/>
      <point x="352.877" y="35.9482" type="line"/>
      <point x="352.537" y="41.1777"/>
      <point x="352.379" y="41.4092"/>
      <point x="347.294" y="40.9209" type="curve"/>
      <point x="335.552" y="46.7578" type="line"/>
      <point x="330.868" y="43.2295" type="line"/>
      <point x="330.29" y="39.123" type="line"/>
      <point x="302.733" y="36.7139" type="line"/>
      <point x="300.109" y="28.7119"/>
      <point x="298.628" y="24.1045"/>
      <point x="290.158" y="21.7305" type="curve"/>
      <point x="291.601" y="31.9971" type="line"/>
      <point x="289.548" y="32.2852" type="line"/>
      <point x="286.629" y="26.4141" type="line"/>
      <point x="283.951" y="29.9688" type="line"/>
      <point x="280.742" y="22.043" type="line"/>
      <point x="278.69" y="22.332" type="line"/>
      <point x="270.478" y="23.4863" type="line"/>
      <point x="267.782" y="102.367" type="line"/>
      <point x="265.754" y="147.983" type="line"/>
      <point x="274.437" y="195.673" type="line"/>
      <point x="266.613" y="205.998"/>
      <point x="265.781" y="248.357"/>
      <point x="274.437" y="257.876" type="curve"/>
      <point x="274.437" y="259.949" type="line"/>
      <point x="268.216" y="259.949" type="line"/>
      <point x="266.142" y="307.639" type="line"/>
      <point x="270.289" y="307.639" type="line"/>
      <point x="266.142" y="318.006" type="line"/>
      <point x="273.326" y="324.291"/>
      <point x="269.139" y="336.279"/>
      <point x="269.109" y="344.961" type="curve" smooth="yes"/>
      <point x="269.023" y="368.689"/>
      <point x="277.579" y="404.396"/>
      <point x="266.142" y="425.826" type="curve"/>
      <point x="270.289" y="425.826" type="line"/>
      <point x="270.289" y="450.707" type="line"/>
      <point x="286.877" y="444.486" type="line"/>
      <point x="291.023" y="450.707" type="line"/>
      <point x="291.023" y="452.78" type="line"/>
      <point x="282.717" y="465.635"/>
      <point x="263.047" y="475.893"/>
      <point x="247.849" y="479.735" type="curve"/>
      <point x="261.996" y="485.956" type="line"/>
      <point x="239.555" y="500.47" type="line"/>
      <point x="237.48" y="500.47" type="line"/>
      <point x="237.48" y="494.249" type="line"/>
      <point x="227.113" y="498.396" type="line"/>
      <point x="222.967" y="485.956" type="line"/>
      <point x="230.893" y="485.956" type="line"/>
      <point x="230.893" y="490.102" type="line"/>
      <point x="228.82" y="490.102" type="line"/>
      <point x="222.967" y="409.238" type="line"/>
      <point x="227.113" y="400.944" type="line"/>
      <point x="230.893" y="394.725" type="line"/>
      <point x="227.113" y="396.797" type="line"/>
      <point x="229.188" y="311.786" type="line"/>
      <point x="233.334" y="313.859" type="line"/>
      <point x="233.334" y="311.786" type="line"/>
      <point x="233.334" y="293.125" type="line"/>
      <point x="203.938" y="282.758" type="line"/>
      <point x="206.012" y="286.904" type="line"/>
      <point x="203.938" y="286.904" type="line"/>
      <point x="185.093" y="294.34" type="line"/>
      <point x="158.322" y="291.052" type="line"/>
      <point x="156.249" y="284.83" type="line"/>
      <point x="133.441" y="284.83" type="line"/>
      <point x="145.882" y="299.346" type="line"/>
      <point x="147.956" y="299.346" type="line"/>
      <point x="157.338" y="289.471"/>
      <point x="166.544" y="302.968"/>
      <point x="168.689" y="311.786" type="curve"/>
      <point x="158.146" y="312.161"/>
      <point x="147.425" y="313.14"/>
      <point x="143.809" y="301.418" type="curve"/>
      <point x="139.661" y="305.565" type="line"/>
      <point x="106.486" y="297.272" type="line"/>
      <point x="104.414" y="291.052" type="line"/>
      <point x="96.1191" y="293.125" type="line"/>
      <point x="94.0459" y="284.83" type="line"/>
      <point x="91.9727" y="284.83" type="line"/>
      <point x="94.0459" y="291.052" type="line"/>
      <point x="63.5039" y="280.685" type="line"/>
      <point x="88.3848" y="318.006" type="line"/>
      <point x="92.458" y="318.006" type="line"/>
      <point x="90.458" y="311.786" type="line"/>
      <point x="92.5322" y="311.786" type="line"/>
      <point x="92.458" y="320.079" type="line"/>
      <point x="98.6787" y="326.3" type="line"/>
      <point x="106.973" y="328.374" type="line"/>
      <point x="104.898" y="334.594" type="line"/>
      <point x="115.267" y="340.814" type="line"/>
      <point x="113.193" y="351.181" type="line"/>
      <point x="102.826" y="347.035" type="line"/>
      <point x="100.753" y="357.401" type="line"/>
      <point x="110.906" y="364.13"/>
      <point x="107.283" y="374.184"/>
      <point x="111.925" y="384.356" type="curve" smooth="yes"/>
      <point x="123.01" y="408.647"/>
      <point x="134.783" y="436.052"/>
      <point x="136.147" y="463.147" type="curve"/>
      <point x="134.074" y="463.147" type="line"/>
      <point x="134.074" y="459" type="line"/>
      <point x="132" y="459" type="line"/>
      <point x="132" y="469.368" type="line"/>
      <point x="134.074" y="469.368" type="line"/>
      <point x="138.221" y="465.221" type="line"/>
      <point x="146.516" y="496.322" type="line"/>
      <point x="140.295" y="492.176" type="line"/>
      <point x="142.368" y="500.47" type="line"/>
      <point x="138.221" y="496.322" type="line"/>
      <point x="136.147" y="496.322" type="line"/>
    </contour>
  </outline>
</glyph>
<glyph name="six" format="2">
  <advance width="318"/>
  <unicode hex="0036"/>
  <outline>
    <contour>
      <point x="194.355" y="505.512" type="curve" smooth="yes"/>
      <point x="192.962" y="505.533"/>
      <point x="191.591" y="505.386"/>
      <point x="190.267" y="504.971" type="curve" smooth="yes"/>
      <point x="176.502" y="500.647"/>
      <point x="154.678" y="476.807"/>
      <point x="152.854" y="462.62" type="curve"/>
      <point x="148.82" y="464.906" type="line"/>
      <point x="148.386" y="456.625" type="line"/>
      <point x="140.109" y="455.195"/>
      <point x="137.41" y="446.067"/>
      <point x="132.651" y="439.645" type="curve" smooth="yes"/>
      <point x="120.404" y="423.084"/>
      <point x="86.0918" y="395.934"/>
      <point x="89.3135" y="374.226" type="curve"/>
      <point x="83.1016" y="374.552" type="line"/>
      <point x="84.8477" y="368.23" type="line"/>
      <point x="53.6875" y="328.339" type="line"/>
      <point x="59.6816" y="323.873" type="line"/>
      <point x="63.877" y="307.633"/>
      <point x="62.9131" y="300.293"/>
      <point x="49.4482" y="287.033" type="curve"/>
      <point x="51.083" y="278.645" type="line"/>
      <point x="42" y="272.915"/>
      <point x="35.543" y="258.763"/>
      <point x="37.0322" y="248.236" type="curve"/>
      <point x="28.7451" y="243.554"/>
      <point x="9.80078" y="221.77"/>
      <point x="17.7627" y="213.686" type="curve"/>
      <point x="10.5752" y="195.376" type="line"/>
      <point x="16.8945" y="197.122" type="line"/>
      <point x="14.2812" y="186.878" type="line"/>
      <point x="12.2129" y="186.986" type="line"/>
      <point x="8.28711" y="191.345" type="line"/>
      <point x="0.229492" y="156.471" type="line"/>
      <point x="8.2959" y="151.894" type="line"/>
      <point x="0.121094" y="154.399" type="line"/>
      <point x="-5.38281" y="134.441"/>
      <point x="0.770508" y="118.118"/>
      <point x="22.9092" y="113.754" type="curve"/>
      <point x="22.8008" y="111.683" type="line"/>
      <point x="18.5498" y="109.832" type="line"/>
      <point x="29.6865" y="100.352"/>
      <point x="41.1846" y="75.7432"/>
      <point x="56.5898" y="74.9219" type="curve"/>
      <point x="66.3994" y="64.0254" type="line"/>
      <point x="78.7139" y="61.3047" type="line"/>
      <point x="97.0244" y="54.1172" type="line"/>
      <point x="94.6289" y="48.0137" type="line"/>
      <point x="108.301" y="52.9531"/>
      <point x="114.416" y="50.3965"/>
      <point x="123.183" y="38.2109" type="curve"/>
      <point x="129.611" y="42.0264" type="line"/>
      <point x="127.215" y="35.9219" type="line"/>
      <point x="133.534" y="37.668" type="line"/>
      <point x="142.343" y="21.1172"/>
      <point x="167.939" y="22.2217"/>
      <point x="184.117" y="21.1113" type="curve"/>
      <point x="166.034" y="-7.00781" type="line"/>
      <point x="168.429" y="-0.904297" type="line"/>
      <point x="166.359" y="-0.795898" type="line"/>
      <point x="157.209" y="-16.9258" type="line"/>
      <point x="165.274" y="-21.5029" type="line"/>
      <point x="166.465" y="-28.8955"/>
      <point x="176.628" y="-31.0771"/>
      <point x="182.317" y="-25.5107" type="curve" smooth="yes"/>
      <point x="189.735" y="-18.251"/>
      <point x="193.041" y="-5.89648"/>
      <point x="193.602" y="4.00488" type="curve"/>
      <point x="195.673" y="3.89648" type="line"/>
      <point x="195.238" y="-4.38672" type="line"/>
      <point x="197.31" y="-4.49512" type="line"/>
      <point x="203.198" y="5.63574"/>
      <point x="222.81" y="19.7295"/>
      <point x="217.898" y="31.7988" type="curve"/>
      <point x="250.399" y="66.998" type="line"/>
      <point x="278.354" y="119.007" type="line"/>
      <point x="290.912" y="197.452" type="line"/>
      <point x="284.482" y="193.638" type="line"/>
      <point x="280.883" y="204.207" type="line"/>
      <point x="277.394" y="216.847" type="line"/>
      <point x="280.67" y="229.059"/>
      <point x="275.196" y="238.69"/>
      <point x="261.807" y="236.351" type="curve"/>
      <point x="261.037" y="261.306" type="line"/>
      <point x="253.699" y="260.749"/>
      <point x="250.32" y="261.658"/>
      <point x="246.868" y="268.277" type="curve"/>
      <point x="228.666" y="277.538" type="line"/>
      <point x="230.521" y="273.289" type="line"/>
      <point x="228.449" y="273.397" type="line"/>
      <point x="218.966" y="290.504" type="line"/>
      <point x="202.724" y="297.583" type="line"/>
      <point x="157.978" y="337.408" type="line"/>
      <point x="149.479" y="333.699" type="line"/>
      <point x="132.616" y="369.986" type="line"/>
      <point x="126.296" y="368.24" type="line"/>
      <point x="122.59" y="376.741" type="line"/>
      <point x="147.592" y="396.635" type="line"/>
      <point x="173.055" y="453.36" type="line"/>
      <point x="190.704" y="473.199" type="line"/>
      <point x="194.628" y="468.839" type="line"/>
      <point x="210.931" y="501.102" type="line"/>
      <point x="206.896" y="503.39" type="line"/>
      <point x="202.919" y="503.859"/>
      <point x="198.535" y="505.447"/>
    </contour>
    <contour>
      <point x="114.642" y="343.936" type="line"/>
      <point x="97.8301" y="299.032" type="line"/>
      <point x="97.7217" y="296.961" type="line"/>
      <point x="91.6182" y="299.358" type="line"/>
      <point x="90.9668" y="286.935" type="line"/>
      <point x="88.8955" y="287.043" type="line"/>
      <point x="89.1133" y="291.184" type="line"/>
      <point x="87.0449" y="291.292" type="line"/>
      <point x="75.4961" y="269.059" type="line"/>
      <point x="81.1582" y="297.829" type="line"/>
      <point x="83.2275" y="297.721" type="line"/>
      <point x="85.082" y="293.473" type="line"/>
      <point x="92.5947" y="317.993" type="line"/>
    </contour>
    <contour>
      <point x="133.03" y="297.188" type="line"/>
      <point x="143.167" y="292.505" type="line"/>
      <point x="145.842" y="281.325"/>
      <point x="181.695" y="287.421"/>
      <point x="190.375" y="283.458" type="curve" smooth="yes"/>
      <point x="208.563" y="275.151"/>
      <point x="212.055" y="246.625"/>
      <point x="233.25" y="246.153" type="curve"/>
      <point x="237.067" y="239.725" type="line"/>
      <point x="236.958" y="237.653" type="line"/>
      <point x="229.247" y="200.684" type="line"/>
      <point x="224.443" y="157.334" type="line"/>
      <point x="213.487" y="145.979"/>
      <point x="217.738" y="120.436"/>
      <point x="216.638" y="106.171" type="curve" smooth="yes"/>
      <point x="215.761" y="94.9932"/>
      <point x="209.438" y="84.459"/>
      <point x="208.941" y="73.4121" type="curve" smooth="yes"/>
      <point x="208.629" y="66.6543"/>
      <point x="201.923" y="59.7891"/>
      <point x="201.87" y="53.2148" type="curve" smooth="yes"/>
      <point x="201.791" y="43.3838"/>
      <point x="189.818" y="30.8271"/>
      <point x="184.226" y="23.1826" type="curve"/>
      <point x="182.154" y="23.292" type="line"/>
      <point x="180.628" y="33.752" type="line"/>
      <point x="171.292" y="33.8975"/>
      <point x="155.757" y="37.749"/>
      <point x="154.784" y="46.9355" type="curve"/>
      <point x="137.986" y="53.2539"/>
      <point x="124.136" y="72.2246"/>
      <point x="114.002" y="86.4551" type="curve" smooth="yes"/>
      <point x="109.478" y="92.8154"/>
      <point x="103.003" y="100.068"/>
      <point x="106.057" y="107.626" type="curve"/>
      <point x="94.3838" y="113.079"/>
      <point x="90.0713" y="121.502"/>
      <point x="86.6543" y="133.558" type="curve"/>
      <point x="82.4033" y="131.706" type="line"/>
      <point x="75.2822" y="141.608"/>
      <point x="68.2939" y="158.906"/>
      <point x="68.7803" y="171.742" type="curve" smooth="yes"/>
      <point x="69.0801" y="179.827"/>
      <point x="75.5352" y="186.526"/>
      <point x="72.8018" y="194.191" type="curve"/>
      <point x="72.9102" y="196.264" type="line"/>
      <point x="100.354" y="228.307" type="line"/>
      <point x="119.955" y="285.415" type="line"/>
      <point x="122.026" y="285.307" type="line"/>
      <point x="121.701" y="279.096" type="line"/>
    </contour>
    <contour>
      <point x="254.834" y="222.184" type="line"/>
      <point x="263.007" y="219.678" type="line"/>
      <point x="262.898" y="217.606" type="line"/>
      <point x="264.318" y="205.075" type="line"/>
      <point x="260.944" y="180.337" type="line"/>
      <point x="267.157" y="180.011" type="line"/>
      <point x="267.049" y="177.941" type="line"/>
      <point x="257.574" y="155.598" type="line"/>
      <point x="247.88" y="121.113" type="line"/>
      <point x="242.841" y="102.975" type="line"/>
      <point x="253.332" y="106.295" type="line"/>
      <point x="242.764" y="102.694" type="line"/>
      <point x="242.841" y="102.975" type="line"/>
      <point x="236.442" y="100.951" type="line"/>
      <point x="237.861" y="88.4189" type="line"/>
      <point x="235.792" y="88.5273" type="line"/>
      <point x="236.117" y="94.7393" type="line"/>
      <point x="234.046" y="94.8477" type="line"/>
      <point x="224.568" y="72.5039" type="line"/>
      <point x="222.5" y="72.6123" type="line"/>
      <point x="221.514" y="93.4277" type="line"/>
      <point x="234.83" y="99.8838"/>
      <point x="239.978" y="147.897"/>
      <point x="235.013" y="160.934" type="curve"/>
      <point x="234.688" y="154.723" type="line"/>
      <point x="232.618" y="154.831" type="line"/>
      <point x="231.089" y="165.292" type="line"/>
      <point x="248.478" y="174.157"/>
      <point x="243.092" y="186.7"/>
      <point x="245.467" y="201.91" type="curve"/>
      <point x="247.213" y="195.591" type="line"/>
      <point x="249.281" y="195.482" type="line"/>
    </contour>
    <contour>
      <point x="28.8945" y="148.739" type="line"/>
      <point x="69.7725" y="88.7637" type="line"/>
      <point x="47.4307" y="98.2412" type="line"/>
      <point x="38.0527" y="125.419" type="line"/>
      <point x="33.8037" y="123.564" type="line"/>
    </contour>
  </outline>
</glyph>
<glyph name="colon" format="2">
  <advance width="144"/>
  <unicode hex="003A"/>
  <outline>
    <contour>
      <point x="91.7676" y="398.809" type="curve" smooth="yes"/>
      <point x="87.7559" y="398.695"/>
      <point x="82.8652" y="396.412"/>
      <point x="78.584" y="394.1" type="curve" smooth="yes"/>
      <point x="59.1162" y="383.579"/>
      <point x="58.2891" y="367.681"/>
      <point x="44.6348" y="354.133" type="curve"/>
      <point x="47.9922" y="347.418" type="line"/>
      <point x="53.0293" y="347.418" type="line"/>
      <point x="51.3496" y="342.381" type="line"/>
      <point x="63.1016" y="337.344" type="line"/>
      <point x="66.459" y="325.592" type="line"/>
      <point x="76.5332" y="318.877" type="line"/>
      <point x="86.0469" y="326.152" type="line"/>
      <point x="95" y="347.418" type="line"/>
      <point x="100.037" y="349.096" type="line"/>
      <point x="100.037" y="359.17" type="line"/>
      <point x="93.3203" y="359.17" type="line"/>
      <point x="93.2334" y="363.338"/>
      <point x="89.9277" y="370.278"/>
      <point x="91.3623" y="373.906" type="curve" smooth="yes"/>
      <point x="93.5527" y="379.449"/>
      <point x="99.9473" y="380.67"/>
      <point x="99.8496" y="387.711" type="curve" smooth="yes"/>
      <point x="99.7314" y="396.276"/>
      <point x="96.3145" y="398.936"/>
    </contour>
    <contour>
      <point x="79.8916" y="188.715" type="line"/>
      <point x="79.8916" y="183.678" type="line"/>
      <point x="78.2119" y="187.035" type="line"/>
      <point x="76.5332" y="187.035" type="line"/>
      <point x="59.7451" y="171.926" type="line"/>
      <point x="44.6348" y="158.496" type="line"/>
      <point x="42.9551" y="146.744" type="line"/>
      <point x="46.3125" y="143.387" type="line"/>
      <point x="54.6719" y="143.387"/>
      <point x="47.7773" y="133.15"/>
      <point x="42.9551" y="131.635" type="curve"/>
      <point x="49.6699" y="116.523" type="line"/>
      <point x="51.3496" y="116.523" type="line"/>
      <point x="53.0293" y="119.883" type="line"/>
      <point x="69.8164" y="114.846" type="line"/>
      <point x="68.1387" y="108.129" type="line"/>
      <point x="80.6602" y="104.693"/>
      <point x="81.6035" y="111.809"/>
      <point x="88.2852" y="119.883" type="curve"/>
      <point x="86.6055" y="114.846" type="line"/>
      <point x="91.5029" y="118.311"/>
      <point x="101.621" y="132.953"/>
      <point x="98.3574" y="138.35" type="curve"/>
      <point x="98.3574" y="140.027" type="line"/>
      <point x="103.396" y="145.064" type="line"/>
      <point x="93.7881" y="153.712"/>
      <point x="92.502" y="164.925"/>
      <point x="89.9629" y="176.963" type="curve"/>
      <point x="95" y="182" type="line"/>
    </contour>
  </outline>
</glyph>
<glyph name="equal" format="2">
  <advance width="278"/>
  <unicode hex="003D"/>
  <outline>
    <contour>
      <point x="76.4824" y="325.573" type="curve" smooth="yes"/>
      <point x="61.8809" y="325.512"/>
      <point x="45.8066" y="306.81"/>
      <point x="45.8477" y="293.798" type="curve"/>
      <point x="38.209" y="291.06"/>
      <point x="34.8506" y="277.075"/>
      <point x="45.9141" y="276.763" type="curve" smooth="yes"/>
      <point x="61.4766" y="276.321"/>
      <point x="92.7041" y="310.03"/>
      <point x="104.607" y="288.761" type="curve"/>
      <point x="121.396" y="285.403" type="line"/>
      <point x="124.754" y="287.083" type="line"/>
      <point x="124.754" y="290.44" type="line"/>
      <point x="130.344" y="288.675"/>
      <point x="145.806" y="285.787"/>
      <point x="146.578" y="292.118" type="curve"/>
      <point x="148.258" y="292.118" type="line"/>
      <point x="153.295" y="285.403" type="line"/>
      <point x="165.047" y="285.403" type="line"/>
      <point x="210.375" y="285.403" type="line"/>
      <point x="215.412" y="295.476" type="line"/>
      <point x="218.77" y="293.798" type="line"/>
      <point x="220.447" y="295.476" type="line"/>
      <point x="227.164" y="324.017" type="line"/>
      <point x="219.86" y="323.757"/>
      <point x="208.276" y="328.955"/>
      <point x="207.018" y="317.302" type="curve"/>
      <point x="175.119" y="320.659" type="line"/>
      <point x="173.439" y="315.622" type="line"/>
      <point x="152.873" y="329.048"/>
      <point x="124.786" y="305.698"/>
      <point x="106.285" y="322.339" type="curve"/>
      <point x="104.607" y="322.339" type="line"/>
      <point x="102.928" y="317.302" type="line"/>
      <point x="98.5625" y="321.934"/>
      <point x="93.8789" y="325.589"/>
      <point x="87.8184" y="322.339" type="curve"/>
      <point x="86.1406" y="322.339" type="line"/>
      <point x="83.1436" y="324.609"/>
      <point x="79.8516" y="325.588"/>
    </contour>
    <contour>
      <point x="243.891" y="259.628" type="curve" smooth="yes"/>
      <point x="243.487" y="259.643"/>
      <point x="243.07" y="259.623"/>
      <point x="242.643" y="259.567" type="curve" smooth="yes"/>
      <point x="228.675" y="257.739"/>
      <point x="207.673" y="227.674"/>
      <point x="195.266" y="240.073" type="curve"/>
      <point x="170.082" y="236.716" type="line"/>
      <point x="170.082" y="240.073" type="line"/>
      <point x="131.469" y="238.396" type="line"/>
      <point x="129.789" y="243.433" type="line"/>
      <point x="128.111" y="243.433" type="line"/>
      <point x="121.396" y="235.038" type="line"/>
      <point x="119.717" y="240.073" type="line"/>
      <point x="109.996" y="237.759"/>
      <point x="92.252" y="241.734"/>
      <point x="86.1406" y="233.358" type="curve"/>
      <point x="57.5996" y="231.681" type="line"/>
      <point x="37.4531" y="213.212" type="line"/>
      <point x="44.168" y="189.708" type="line"/>
      <point x="72.709" y="199.782" type="line"/>
      <point x="74.3867" y="204.817" type="line"/>
      <point x="94.5332" y="206.497" type="line"/>
      <point x="96.2129" y="208.177" type="line"/>
      <point x="101.72" y="206.554"/>
      <point x="107.276" y="205.225"/>
      <point x="111.322" y="209.854" type="curve"/>
      <point x="136.506" y="208.177" type="line"/>
      <point x="136.506" y="211.534" type="line"/>
      <point x="141.541" y="204.817" type="line"/>
      <point x="148.491" y="207.554"/>
      <point x="155.393" y="212.552"/>
      <point x="163.082" y="212.888" type="curve" smooth="yes"/>
      <point x="177.957" y="213.536"/>
      <point x="218.45" y="196.937"/>
      <point x="225.484" y="218.249" type="curve"/>
      <point x="232.199" y="216.569" type="line"/>
      <point x="234.533" y="226.675"/>
      <point x="232.285" y="234.826"/>
      <point x="243.953" y="238.396" type="curve"/>
      <point x="238.916" y="243.433" type="line"/>
      <point x="238.916" y="245.11" type="line"/>
      <point x="243.953" y="241.753" type="line"/>
      <point x="245.631" y="241.753" type="line"/>
      <point x="245.631" y="248.468" type="line"/>
      <point x="245.631" y="250.147" type="line"/>
      <point x="252.965" y="251.719"/>
      <point x="249.941" y="259.41"/>
    </contour>
    <contour>
      <point x="94.5332" y="206.497" type="line"/>
      <point x="92.8535" y="204.817" type="line"/>
      <point x="94.5332" y="204.817" type="line"/>
    </contour>
    <contour>
      <point x="92.8535" y="204.817" type="line"/>
      <point x="91.1758" y="203.14" type="line"/>
      <point x="91.1758" y="204.817" type="line"/>
    </contour>
  </outline>
</glyph>
<glyph name="backslash" format="2">
  <advance width="257"/>
  <unicode hex="005C"/>
  <outline>
    <contour>
      <point x="46.1172" y="457.616" type="curve"/>
      <point x="50.2949" y="438.188"/>
      <point x="47.4189" y="452.961"/>
      <point x="48.6094" y="448.023" type="curve"/>
      <point x="43.4863" y="435.858"/>
      <point x="62.6221" y="391.058"/>
      <point x="73.4805" y="383.831" type="curve"/>
      <point x="79.25" y="357.684" type="line"/>
      <point x="76.1602" y="353.809" type="line"/>
      <point x="84.0547" y="338.504"/>
      <point x="80.8945" y="316.071"/>
      <point x="86.875" y="299.014" type="curve" smooth="yes"/>
      <point x="89.0352" y="292.867"/>
      <point x="95.3936" y="282.487"/>
      <point x="102.278" y="284.822" type="curve"/>
      <point x="104.445" y="284.361" type="line"/>
      <point x="116.725" y="259.805" type="line"/>
      <point x="111.429" y="239.907"/>
      <point x="126.398" y="223.577"/>
      <point x="129.971" y="204.882" type="curve"/>
      <point x="118.672" y="205.017" type="line"/>
      <point x="112.032" y="195.101" type="line"/>
      <point x="114.199" y="194.641" type="line"/>
      <point x="115.121" y="198.975" type="line"/>
      <point x="117.289" y="198.514" type="line"/>
      <point x="123.98" y="176.7" type="line"/>
      <point x="134.273" y="129.201" type="line"/>
      <point x="141.238" y="129.987" type="line"/>
      <point x="138.935" y="119.147" type="line"/>
      <point x="141.102" y="118.688" type="line"/>
      <point x="142.023" y="123.022" type="line"/>
      <point x="144.191" y="122.563" type="line"/>
      <point x="143.321" y="114.1"/>
      <point x="142.6" y="106.226"/>
      <point x="151.344" y="102.916" type="curve"/>
      <point x="149.041" y="92.0791" type="line"/>
      <point x="151.208" y="91.6172" type="line"/>
      <point x="154.297" y="95.4922" type="line"/>
      <point x="164.863" y="70.5898" type="line"/>
      <point x="161.312" y="64.5488" type="line"/>
      <point x="163.479" y="64.0869" type="line"/>
      <point x="164.401" y="68.4219" type="line"/>
      <point x="166.569" y="67.9619" type="line"/>
      <point x="172.664" y="32.6826" type="line"/>
      <point x="183.828" y="21.2471" type="line"/>
      <point x="180.277" y="15.2041" type="line"/>
      <point x="204.908" y="3.17383" type="line"/>
      <point x="206.927" y="-4.06348"/>
      <point x="219.279" y="-51.041"/>
      <point x="233.176" y="-29.6865" type="curve" smooth="yes"/>
      <point x="243.75" y="-13.4092"/>
      <point x="218.026" y="23.8545"/>
      <point x="207.023" y="34.4424" type="curve"/>
      <point x="204.665" y="55.333" type="line"/>
      <point x="196.836" y="59"/>
      <point x="197.844" y="66.9365"/>
      <point x="199.681" y="74.5176" type="curve"/>
      <point x="183.073" y="102.969" type="line"/>
      <point x="187.084" y="111.179" type="line"/>
      <point x="182.561" y="132.531" type="line"/>
      <point x="174.811" y="138.709" type="line"/>
      <point x="174.759" y="170.438" type="line"/>
      <point x="161.563" y="193.635" type="line"/>
      <point x="167.606" y="190.084" type="line"/>
      <point x="168.067" y="192.252" type="line"/>
      <point x="162.024" y="195.803" type="line"/>
      <point x="165.114" y="199.676" type="line"/>
      <point x="154.736" y="204.147" type="line"/>
      <point x="155.197" y="206.314" type="line"/>
      <point x="159.993" y="207.561" type="line"/>
      <point x="154.746" y="224.023"/>
      <point x="152.827" y="241.104"/>
      <point x="148.015" y="257.481" type="curve" smooth="yes"/>
      <point x="141.565" y="279.365"/>
      <point x="119.377" y="315.704"/>
      <point x="125.096" y="338.877" type="curve"/>
      <point x="111.576" y="371.204" type="line"/>
      <point x="103.231" y="372.979"/>
      <point x="104.811" y="388.408"/>
      <point x="102.462" y="395.798" type="curve" smooth="yes"/>
      <point x="96.1533" y="415.571"/>
      <point x="77.0576" y="447.136"/>
      <point x="82.3184" y="468.048" type="curve"/>
      <point x="69.8643" y="480.87"/>
      <point x="69.1709" y="515.877"/>
      <point x="47.5879" y="517.833" type="curve" smooth="yes"/>
      <point x="24.4932" y="519.924"/>
      <point x="31.5449" y="463.458"/>
    </contour>
  </outline>
</glyph>
<glyph name="uni0413" format="2">
  <advance width="269"/>
  <unicode hex="0413"/>
  <outline>
    <contour>
      <point x="237.706" y="511.811" type="curve" smooth="yes"/>
      <point x="229.908" y="511.11"/>
      <point x="219.988" y="501.104"/>
      <point x="212.884" y="500.537" type="curve" smooth="yes"/>
      <point x="179.726" y="497.888"/>
      <point x="152.376" y="488.934"/>
      <point x="119.869" y="482.531" type="curve" smooth="yes"/>
      <point x="111.108" y="480.806"/>
      <point x="94.3887" y="471.961"/>
      <point x="86.4102" y="477.92" type="curve" smooth="yes"/>
      <point x="79.2305" y="483.28"/>
      <point x="78.8887" y="502.084"/>
      <point x="75.1113" y="510.723" type="curve"/>
      <point x="45.8848" y="501.008"/>
      <point x="74.3418" y="466.351"/>
      <point x="39.3262" y="459.375" type="curve"/>
      <point x="69.2295" y="414.187" type="line"/>
      <point x="69.9102" y="364.893" type="line"/>
      <point x="75.4434" y="165.307" type="line"/>
      <point x="78.8477" y="81.4424" type="line"/>
      <point x="78.6904" y="44.4707" type="line"/>
      <point x="78.6904" y="42.417" type="line"/>
      <point x="97.4863" y="13.9404"/>
      <point x="75.5605" y="-34.9375"/>
      <point x="110.896" y="-52.0654" type="curve"/>
      <point x="112.872" y="-34.0049"/>
      <point x="100.912" y="-22.5029"/>
      <point x="102.13" y="-5.45117" type="curve" smooth="yes"/>
      <point x="102.863" y="4.83105"/>
      <point x="115.799" y="3.47559"/>
      <point x="115.526" y="15.7256" type="curve" smooth="yes"/>
      <point x="115.187" y="31.0459"/>
      <point x="104.175" y="44.3896"/>
      <point x="114.476" y="58.8516" type="curve"/>
      <point x="114.476" y="60.9062" type="line"/>
      <point x="103.4" y="68.9189"/>
      <point x="107.047" y="93.916"/>
      <point x="107.047" y="107.273" type="curve" smooth="yes"/>
      <point x="107.047" y="149.441"/>
      <point x="92.1494" y="205.683"/>
      <point x="105.528" y="245.762" type="curve"/>
      <point x="93.9512" y="245.762"/>
      <point x="98.2705" y="277.618"/>
      <point x="103.738" y="282.732" type="curve"/>
      <point x="103.738" y="284.787" type="line"/>
      <point x="103.738" y="286.842" type="line"/>
      <point x="97.4639" y="296.206"/>
      <point x="96.8926" y="310.666"/>
      <point x="103.738" y="319.704" type="curve"/>
      <point x="103.738" y="321.759" type="line"/>
      <point x="98.373" y="381.324" type="line"/>
      <point x="106.61" y="413.508"/>
      <point x="155.698" y="439.005"/>
      <point x="182.468" y="443.557" type="curve" smooth="yes"/>
      <point x="189.75" y="444.795"/>
      <point x="200.005" y="450.969"/>
      <point x="207.252" y="447.783" type="curve" smooth="yes"/>
      <point x="216.012" y="443.934"/>
      <point x="209.792" y="402.465"/>
      <point x="219.577" y="406.684" type="curve" smooth="yes"/>
      <point x="224.563" y="408.832"/>
      <point x="225.511" y="423.373"/>
      <point x="226.838" y="428.563" type="curve" smooth="yes"/>
      <point x="232.043" y="448.916"/>
      <point x="241.495" y="469.497"/>
      <point x="244.734" y="490.183" type="curve" smooth="yes"/>
      <point x="245.621" y="495.858"/>
      <point x="247.985" y="506.878"/>
      <point x="242.705" y="510.577" type="curve" smooth="yes"/>
      <point x="241.192" y="511.637"/>
      <point x="239.505" y="511.973"/>
    </contour>
    <contour>
      <point x="224.61" y="496.476" type="curve" smooth="yes"/>
      <point x="227.555" y="496.434"/>
      <point x="229.936" y="494.999"/>
      <point x="231.092" y="491.2" type="curve" smooth="yes"/>
      <point x="234.345" y="480.514"/>
      <point x="220.743" y="476.724"/>
      <point x="214.472" y="476.089" type="curve" smooth="yes"/>
      <point x="181.056" y="472.704"/>
      <point x="155.463" y="456.371"/>
      <point x="123.219" y="448.71" type="curve"/>
      <point x="121.43" y="450.765" type="line"/>
      <point x="134.283" y="478.894"/>
      <point x="179.679" y="474.453"/>
      <point x="201.948" y="485.614" type="curve" smooth="yes"/>
      <point x="205.876" y="487.582"/>
      <point x="217.087" y="496.582"/>
    </contour>
  </outline>
</glyph>
<glyph name="uni0417" format="2">
  <advance width="307"/>
  <unicode hex="0417"/>
  <outline>
    <contour>
      <point x="133.632" y="519.378" type="curve"/>
      <point x="136.578" y="496.384" type="line"/>
      <point x="130.476" y="498.78" type="line"/>
      <point x="130.149" y="492.568" type="line"/>
      <point x="121.976" y="495.074" type="line"/>
      <point x="123.721" y="488.754" type="line"/>
      <point x="103.42" y="472.361" type="line"/>
      <point x="58.5566" y="405.149" type="line"/>
      <point x="45.7158" y="386.95" type="line"/>
      <point x="42.7773" y="370.493" type="line"/>
      <point x="34.4951" y="370.928" type="line"/>
      <point x="33.9072" y="356.235"/>
      <point x="32.6406" y="343.323"/>
      <point x="49.4307" y="339.001" type="curve"/>
      <point x="66.8643" y="354.697" type="line"/>
      <point x="94.75" y="411.373" type="line"/>
      <point x="96.8203" y="411.264" type="line"/>
      <point x="96.6035" y="407.122" type="line"/>
      <point x="98.6748" y="407.014" type="line"/>
      <point x="137.564" y="475.569" type="line"/>
      <point x="139.635" y="475.461" type="line"/>
      <point x="140.016" y="465.27"/>
      <point x="143.231" y="449.685"/>
      <point x="154.789" y="447.675" type="curve"/>
      <point x="159.666" y="430.015"/>
      <point x="172.526" y="401.763"/>
      <point x="191.526" y="395.919" type="curve"/>
      <point x="177.908" y="373.793" type="line"/>
      <point x="176.056" y="378.043" type="line"/>
      <point x="173.984" y="378.152" type="line"/>
      <point x="175.514" y="367.689" type="line"/>
      <point x="163.063" y="364.684"/>
      <point x="148.922" y="356.248"/>
      <point x="151.325" y="341.966" type="curve"/>
      <point x="139.574" y="340.773"/>
      <point x="133.074" y="333.808"/>
      <point x="131.604" y="322.235" type="curve"/>
      <point x="129.534" y="322.344" type="line"/>
      <point x="127.68" y="326.595" type="line"/>
      <point x="114.171" y="306.541" type="line"/>
      <point x="111.667" y="298.365" type="line"/>
      <point x="113.737" y="298.257" type="line"/>
      <point x="113.954" y="302.398" type="line"/>
      <point x="116.025" y="302.29" type="line"/>
      <point x="107.418" y="296.512" type="line"/>
      <point x="100.337" y="280.272" type="line"/>
      <point x="121.804" y="293.682" type="line"/>
      <point x="148.712" y="331.722" type="line"/>
      <point x="176.389" y="344.805" type="line"/>
      <point x="178.459" y="344.696" type="line"/>
      <point x="176.715" y="351.016" type="line"/>
      <point x="178.894" y="352.979" type="line"/>
      <point x="184.997" y="350.582" type="line"/>
      <point x="198.398" y="368.566" type="line"/>
      <point x="200.252" y="364.317" type="line"/>
      <point x="202.322" y="364.209" type="line"/>
      <point x="204.827" y="372.383" type="line"/>
      <point x="213.109" y="371.948" type="line"/>
      <point x="211.339" y="363.748"/>
      <point x="206.214" y="360.305"/>
      <point x="200.688" y="354.32" type="curve" smooth="yes"/>
      <point x="187.361" y="339.889"/>
      <point x="170.45" y="322.289"/>
      <point x="151.985" y="314.939" type="curve"/>
      <point x="151.876" y="312.869" type="line"/>
      <point x="155.91" y="310.581" type="line"/>
      <point x="145.556" y="311.124" type="line"/>
      <point x="124.75" y="270.688" type="line"/>
      <point x="122.681" y="270.797" type="line"/>
      <point x="122.897" y="274.938" type="line"/>
      <point x="120.827" y="275.046" type="line"/>
      <point x="112.109" y="267.198" type="line"/>
      <point x="106.329" y="246.506"/>
      <point x="96.668" y="240.335"/>
      <point x="113.973" y="223.499" type="curve"/>
      <point x="116.043" y="223.391" type="line"/>
      <point x="118.439" y="229.493" type="line"/>
      <point x="127.816" y="227.926"/>
      <point x="134.007" y="234.374"/>
      <point x="135.764" y="243.118" type="curve"/>
      <point x="139.796" y="240.832" type="line"/>
      <point x="142.819" y="257.725"/>
      <point x="155.952" y="269.135"/>
      <point x="170.738" y="276.583" type="curve"/>
      <point x="174.444" y="268.084" type="line"/>
      <point x="171.201" y="254.467"/>
      <point x="181.383" y="250.479"/>
      <point x="191.888" y="244.33" type="curve"/>
      <point x="188.592" y="240.238"/>
      <point x="187.565" y="236.215"/>
      <point x="193.523" y="235.94" type="curve"/>
      <point x="191.02" y="227.766" type="line"/>
      <point x="207.852" y="210.649" type="line"/>
      <point x="221.477" y="193.325" type="line"/>
      <point x="221.693" y="197.466" type="line"/>
      <point x="239.787" y="186.136" type="line"/>
      <point x="226.712" y="174.363" type="line"/>
      <point x="208.521" y="144.173" type="line"/>
      <point x="200.238" y="144.607" type="line"/>
      <point x="201.875" y="136.216" type="line"/>
      <point x="187.996" y="134.07"/>
      <point x="171.916" y="109.674"/>
      <point x="174.857" y="96.1064" type="curve"/>
      <point x="170.933" y="100.464" type="line"/>
      <point x="168.861" y="100.572" type="line"/>
      <point x="164.179" y="90.4365" type="line"/>
      <point x="170.39" y="90.1113" type="line"/>
      <point x="154.159" y="57.7402" type="line"/>
      <point x="152.088" y="57.8486" type="line"/>
      <point x="152.306" y="61.9902" type="line"/>
      <point x="150.236" y="62.0986" type="line"/>
      <point x="147.405" y="47.7139" type="line"/>
      <point x="141.192" y="48.0391" type="line"/>
      <point x="142.722" y="37.5781" type="line"/>
      <point x="125.288" y="21.8809" type="line"/>
      <point x="119.51" y="30.4883" type="line"/>
      <point x="121.363" y="26.2393" type="line"/>
      <point x="119.293" y="26.3486" type="line"/>
      <point x="115.586" y="34.8467" type="line"/>
      <point x="113.516" y="34.9551" type="line"/>
      <point x="113.082" y="26.6738" type="line"/>
      <point x="111.012" y="26.7822" type="line"/>
      <point x="101.744" y="48.0293" type="line"/>
      <point x="99.6729" y="48.1387" type="line"/>
      <point x="99.3477" y="41.9268" type="line"/>
      <point x="97.2764" y="42.0352" type="line"/>
      <point x="95.6396" y="50.4268" type="line"/>
      <point x="89.3193" y="48.6807" type="line"/>
      <point x="91.7148" y="54.7842" type="line"/>
      <point x="84.877" y="54.8975"/>
      <point x="82.9717" y="61.6387"/>
      <point x="82.0146" y="67.75" type="curve"/>
      <point x="75.584" y="63.9355" type="line"/>
      <point x="76.9258" y="71.2041"/>
      <point x="76.1338" y="74.3545"/>
      <point x="70.1328" y="78.7549" type="curve"/>
      <point x="72.5293" y="84.8584" type="line"/>
      <point x="66.4258" y="87.2539" type="line"/>
      <point x="68.9307" y="95.4287" type="line"/>
      <point x="60.6475" y="95.8623" type="line"/>
      <point x="62.5557" y="104.499"/>
      <point x="66.2725" y="110.796"/>
      <point x="59.4443" y="112.535" type="curve"/>
      <point x="64.2373" y="124.741" type="line"/>
      <point x="57.8096" y="120.927" type="line"/>
      <point x="58.2432" y="129.209" type="line"/>
      <point x="44.1836" y="138.252" type="line"/>
      <point x="45.4932" y="123.648" type="line"/>
      <point x="36.5605" y="111.658" type="line"/>
      <point x="42.4473" y="105.121" type="line"/>
      <point x="34.2725" y="107.626" type="line"/>
      <point x="35.3672" y="88.8818" type="line"/>
      <point x="39.6162" y="90.7363" type="line"/>
      <point x="39.5078" y="88.665" type="line"/>
      <point x="38.3506" y="80.0947"/>
      <point x="40.5947" y="62.8604"/>
      <point x="50.5205" y="61.0967" type="curve"/>
      <point x="54.0107" y="48.4551" type="line"/>
      <point x="63.2793" y="27.207" type="line"/>
      <point x="69.165" y="20.6689" type="line"/>
      <point x="73.4141" y="22.5234" type="line"/>
      <point x="74.9424" y="12.0615" type="line"/>
      <point x="77.0127" y="11.9531" type="line"/>
      <point x="77.4473" y="20.2354" type="line"/>
      <point x="79.5186" y="20.126" type="line"/>
      <point x="79.1934" y="13.9141" type="line"/>
      <point x="85.5137" y="15.6602" type="line"/>
      <point x="83.1172" y="9.55762" type="line"/>
      <point x="93.0352" y="0.731445" type="line"/>
      <point x="104.067" y="-2.84473"/>
      <point x="129.613" y="-14.0312"/>
      <point x="135.246" y="-24.7617" type="curve" smooth="yes"/>
      <point x="137.985" y="-29.9834"/>
      <point x="137.429" y="-37.4189"/>
      <point x="138.489" y="-43.1758" type="curve"/>
      <point x="149.167" y="-37.5059" type="line"/>
      <point x="148.733" y="-45.7891" type="line"/>
      <point x="179.355" y="-38.4473"/>
      <point x="156.501" y="6.70215"/>
      <point x="173.238" y="25.5957" type="curve"/>
      <point x="173.455" y="29.7383" type="line"/>
      <point x="169.422" y="32.0254" type="line"/>
      <point x="200.58" y="71.918" type="line"/>
      <point x="199.054" y="82.3809" type="line"/>
      <point x="201.123" y="82.2725" type="line"/>
      <point x="202.977" y="78.0215" type="line"/>
      <point x="222.263" y="89.4688" type="line"/>
      <point x="225.312" y="107.995" type="line"/>
      <point x="212.779" y="106.576" type="line"/>
      <point x="219.533" y="116.603" type="line"/>
      <point x="217.787" y="122.924" type="line"/>
      <point x="232.717" y="130.447" type="line"/>
      <point x="234.555" y="139.138"/>
      <point x="239.164" y="144.562"/>
      <point x="248.079" y="146.253" type="curve"/>
      <point x="246.334" y="152.572" type="line"/>
      <point x="254.507" y="150.067" type="line"/>
      <point x="263.224" y="157.917" type="line"/>
      <point x="269.218" y="153.449" type="line"/>
      <point x="282.729" y="173.504" type="line"/>
      <point x="279.893" y="181.032"/>
      <point x="276.919" y="184.18"/>
      <point x="268.775" y="184.617" type="curve"/>
      <point x="267.279" y="192.469"/>
      <point x="264.917" y="195.919"/>
      <point x="257.003" y="197.691" type="curve"/>
      <point x="268.008" y="209.572" type="line"/>
      <point x="251.174" y="226.689" type="line"/>
      <point x="242.784" y="225.053" type="line"/>
      <point x="223.706" y="257.196" type="line"/>
      <point x="217.984" y="259.819"/>
      <point x="201.92" y="276.439"/>
      <point x="206.264" y="280.95" type="curve"/>
      <point x="206.372" y="283.021" type="line"/>
      <point x="192.886" y="287.604"/>
      <point x="191.244" y="295.962"/>
      <point x="191.109" y="308.736" type="curve"/>
      <point x="200.014" y="308.133"/>
      <point x="203.914" y="312.862"/>
      <point x="208.326" y="320.292" type="curve"/>
      <point x="229.791" y="333.7" type="line"/>
      <point x="231.861" y="333.592" type="line"/>
      <point x="244.937" y="345.365" type="line"/>
      <point x="248.033" y="353.946"/>
      <point x="255.033" y="359.193"/>
      <point x="264.331" y="358.883" type="curve"/>
      <point x="266.945" y="369.127" type="line"/>
      <point x="281.612" y="368.741"/>
      <point x="282.549" y="384.392"/>
      <point x="270.101" y="389.726" type="curve"/>
      <point x="269.884" y="385.584" type="line"/>
      <point x="255.086" y="387.854"/>
      <point x="233.763" y="378.374"/>
      <point x="229.014" y="398.106" type="curve"/>
      <point x="218.578" y="398.653"/>
      <point x="210.666" y="412.164"/>
      <point x="204.906" y="420.133" type="curve" smooth="yes"/>
      <point x="187.906" y="443.656"/>
      <point x="175.651" y="466.312"/>
      <point x="163.389" y="492.903" type="curve"/>
      <point x="157.068" y="491.158" type="line"/>
      <point x="156.407" y="518.185" type="line"/>
      <point x="152.051" y="514.26" type="line"/>
      <point x="147.058" y="522.719"/>
      <point x="142.036" y="519.181"/>
    </contour>
  </outline>
</glyph>
<glyph name="uni0418" format="2">
  <advance width="326"/>
  <unicode hex="0418"/>
  <outline>
    <contour>
      <point x="67.793" y="516.309" type="curve"/>
      <point x="67.0166" y="516.359"/>
      <point x="66.1807" y="516.302"/>
      <point x="65.2793" y="516.124" type="curve" smooth="yes"/>
      <point x="54.5596" y="514.02"/>
      <point x="57.8926" y="500.094"/>
      <point x="57.7217" y="492.479" type="curve" smooth="yes"/>
      <point x="57.207" y="470.758"/>
      <point x="60.2129" y="447.776"/>
      <point x="57.4434" y="426.099" type="curve" smooth="yes"/>
      <point x="44.7295" y="326.409"/>
      <point x="44.0674" y="210.184"/>
      <point x="48.8369" y="110.166" type="curve" smooth="yes"/>
      <point x="50.4248" y="76.7676"/>
      <point x="49.5283" y="44.4131"/>
      <point x="48.6777" y="11.6611" type="curve" smooth="yes"/>
      <point x="48.502" y="4.46582"/>
      <point x="52.3232" y="-10.6641"/>
      <point x="60.9883" y="-10.9756" type="curve" smooth="yes"/>
      <point x="74.0566" y="-11.4453"/>
      <point x="73.0723" y="6.25488"/>
      <point x="75.1924" y="14.9912" type="curve" smooth="yes"/>
      <point x="81.9912" y="43.2061"/>
      <point x="74.1523" y="65.8604"/>
      <point x="75.6846" y="94.2109" type="curve" smooth="yes"/>
      <point x="76.5049" y="109.014"/>
      <point x="74.999" y="125.288"/>
      <point x="82.1143" y="138.912" type="curve" smooth="yes"/>
      <point x="87.8848" y="149.947"/>
      <point x="100.876" y="151.346"/>
      <point x="108.809" y="160.35" type="curve" smooth="yes"/>
      <point x="134.062" y="188.995"/>
      <point x="156.131" y="215.133"/>
      <point x="186.152" y="239.466" type="curve" smooth="yes"/>
      <point x="198.026" y="249.104"/>
      <point x="214.002" y="274.71"/>
      <point x="231.001" y="273.451" type="curve" smooth="yes"/>
      <point x="242.518" y="272.6"/>
      <point x="238.331" y="250.87"/>
      <point x="238.401" y="242.55" type="curve" smooth="yes"/>
      <point x="238.642" y="216.729"/>
      <point x="248.686" y="158.385"/>
      <point x="232.378" y="137.83" type="curve"/>
      <point x="232.301" y="135.691" type="line"/>
      <point x="241.867" y="123.371"/>
      <point x="244.545" y="96.9873"/>
      <point x="234.548" y="84.2109" type="curve"/>
      <point x="234.471" y="82.0752" type="line"/>
      <point x="250.405" y="61.4922"/>
      <point x="230.048" y="16.0752"/>
      <point x="256.358" y="-0.0253906" type="curve" smooth="yes"/>
      <point x="266.111" y="-5.99512"/>
      <point x="275.046" y="4.06738"/>
      <point x="274.899" y="14.2314" type="curve" smooth="yes"/>
      <point x="274.761" y="24.0713"/>
      <point x="266.834" y="31.8066"/>
      <point x="265.787" y="41.4922" type="curve" smooth="yes"/>
      <point x="261.409" y="82.2686"/>
      <point x="263.063" y="123.669"/>
      <point x="266.151" y="164.453" type="curve"/>
      <point x="268.2" y="164.379" type="line"/>
      <point x="267.97" y="157.966" type="line"/>
      <point x="270.019" y="157.892" type="line"/>
      <point x="265.759" y="203.692"/>
      <point x="264.699" y="244.937"/>
      <point x="271.859" y="290.6" type="curve" smooth="yes"/>
      <point x="273.833" y="303.277"/>
      <point x="262.807" y="313.192"/>
      <point x="271.923" y="324.861" type="curve"/>
      <point x="272" y="327" type="line"/>
      <point x="271.367" y="352.805" type="line"/>
      <point x="269.932" y="450.579" type="line"/>
      <point x="262.315" y="453.817"/>
      <point x="260.541" y="457.435"/>
      <point x="260.23" y="465.918" type="curve"/>
      <point x="266.373" y="465.697" type="line"/>
      <point x="266.681" y="474.25" type="line"/>
      <point x="260.538" y="474.471" type="line"/>
      <point x="260.208" y="482.959"/>
      <point x="261.051" y="496.674"/>
      <point x="255.656" y="503.528" type="curve" smooth="yes"/>
      <point x="244.75" y="517.351"/>
      <point x="234.24" y="502.909"/>
      <point x="236.495" y="490.33" type="curve"/>
      <point x="236.053" y="489.467"/>
      <point x="236.418" y="488.19"/>
      <point x="236.418" y="488.19" type="curve"/>
      <point x="231.628" y="469.089" type="line"/>
      <point x="231.551" y="466.95" type="line"/>
      <point x="244.401" y="457.562"/>
      <point x="234.258" y="413.588"/>
      <point x="234.104" y="399.037" type="curve" smooth="yes"/>
      <point x="233.542" y="343.519"/>
      <point x="171.861" y="322.844"/>
      <point x="133.413" y="292.333" type="curve" smooth="yes"/>
      <point x="115.235" y="277.913"/>
      <point x="102.301" y="258.705"/>
      <point x="82.4414" y="246.02" type="curve"/>
      <point x="77.3135" y="280.784"/>
      <point x="86.6094" y="323.159"/>
      <point x="84.1611" y="359.458" type="curve"/>
      <point x="77.6777" y="384.474"/>
      <point x="90.498" y="512.971"/>
    </contour>
    <contour>
      <point x="229.29" y="337.104" type="curve"/>
      <point x="231.855" y="326.883"/>
      <point x="243.294" y="310.712"/>
      <point x="238.089" y="300.579" type="curve" smooth="yes"/>
      <point x="232.223" y="289.168"/>
      <point x="214.227" y="285.57"/>
      <point x="204.608" y="278.177" type="curve" smooth="yes"/>
      <point x="174.274" y="254.831"/>
      <point x="142.804" y="234.049"/>
      <point x="114.743" y="207.756" type="curve" smooth="yes"/>
      <point x="103.833" y="197.526"/>
      <point x="92.4102" y="179.369"/>
      <point x="76.1123" y="184.142" type="curve"/>
      <point x="89.4014" y="211.502" type="line"/>
      <point x="93.2686" y="204.94" type="line"/>
      <point x="110.357" y="246.082"/>
      <point x="160.177" y="283.652"/>
      <point x="195.497" y="310.479" type="curve" smooth="yes"/>
      <point x="207.538" y="319.627"/>
      <point x="214.629" y="332.068"/>
    </contour>
  </outline>
</glyph>
<glyph name="uni0419" format="2">
  <advance width="307"/>
  <unicode hex="0419"/>
  <outline>
    <contour>
      <point x="247.933" y="637.834" type="line"/>
      <point x="235.833" y="638.334"/>
      <point x="227.69" y="627.896"/>
      <point x="217.847" y="621.331" type="curve" smooth="yes"/>
      <point x="197.817" y="607.964"/>
      <point x="171.316" y="589.359"/>
      <point x="149.072" y="581.488" type="curve" smooth="yes"/>
      <point x="122.553" y="572.104"/>
      <point x="114.73" y="594.138"/>
      <point x="91.0469" y="596.511" type="curve" smooth="yes"/>
      <point x="81.5264" y="597.465"/>
      <point x="71.9209" y="588.771"/>
      <point x="75.252" y="577.814" type="curve" smooth="yes"/>
      <point x="78.1533" y="568.232"/>
      <point x="88.2539" y="565.986"/>
      <point x="95.3457" y="561.355" type="curve" smooth="yes"/>
      <point x="102.996" y="556.35"/>
      <point x="108.22" y="545.045"/>
      <point x="116.924" y="542.354" type="curve" smooth="yes"/>
      <point x="128.035" y="538.908"/>
      <point x="142.992" y="548.226"/>
      <point x="155.521" y="546.315" type="curve" smooth="yes"/>
      <point x="163.796" y="545.054"/>
      <point x="186.362" y="536.015"/>
      <point x="192.595" y="544.393" type="curve" smooth="yes"/>
      <point x="199.665" y="553.907"/>
      <point x="179.785" y="558.42"/>
      <point x="174.863" y="559.215" type="curve"/>
    </contour>
    <contour>
      <point x="248.934" y="499.33" type="line"/>
      <point x="238.882" y="497.907"/>
      <point x="216.712" y="449.621"/>
      <point x="215.941" y="439.08" type="curve" smooth="yes"/>
      <point x="214.846" y="424.055"/>
      <point x="223.205" y="406.479"/>
      <point x="216.155" y="392.379" type="curve" smooth="yes"/>
      <point x="207.839" y="375.712"/>
      <point x="193.456" y="374.604"/>
      <point x="178.863" y="365.719" type="curve" smooth="yes"/>
      <point x="146.391" y="345.958"/>
      <point x="102.41" y="287.56"/>
      <point x="68.3027" y="272.12" type="curve"/>
      <point x="72.7949" y="294.325"/>
      <point x="71.0967" y="393.42"/>
      <point x="64.7793" y="415.576" type="curve" smooth="yes"/>
      <point x="62.0928" y="425.04"/>
      <point x="60.2793" y="429.24"/>
      <point x="57.916" y="438.832" type="curve" smooth="yes"/>
      <point x="54.4561" y="452.916"/>
      <point x="62.9863" y="467.394"/>
      <point x="58.4951" y="480.319" type="curve" smooth="yes"/>
      <point x="51.8975" y="499.354"/>
      <point x="32.6641" y="503.211"/>
      <point x="28.8389" y="480.354" type="curve" smooth="yes"/>
      <point x="20.415" y="429.887"/>
      <point x="33.3721" y="363.468"/>
      <point x="35.1992" y="311.561" type="curve" smooth="yes"/>
      <point x="37.8428" y="236.001"/>
      <point x="23.1826" y="162.084"/>
      <point x="25.0088" y="87.2666" type="curve" smooth="yes"/>
      <point x="25.6748" y="60.3447"/>
      <point x="39.9238" y="40.2549"/>
      <point x="40.5039" y="15.5811" type="curve" smooth="yes"/>
      <point x="40.7402" y="6.0498"/>
      <point x="42.5625" y="-13.9717"/>
      <point x="54.9414" y="-17.2041" type="curve" smooth="yes"/>
      <point x="67.4707" y="-20.4717"/>
      <point x="67.5" y="-3.74316"/>
      <point x="73.3027" y="4.03027" type="curve"/>
      <point x="71.3027" y="6.34277" type="line"/>
      <point x="71.3027" y="8.65625" type="line"/>
      <point x="55.5713" y="28.1064"/>
      <point x="72.2695" y="60.0752"/>
      <point x="67.0039" y="82.6455" type="curve"/>
      <point x="69.0791" y="88.1045" type="line"/>
      <point x="71.3027" y="94.209" type="line"/>
      <point x="61.8545" y="142.952" type="line"/>
      <point x="78.7246" y="146.841"/>
      <point x="69.1621" y="165.302"/>
      <point x="79.9512" y="179.566" type="curve" smooth="yes"/>
      <point x="102.667" y="209.626"/>
      <point x="142.591" y="240.437"/>
      <point x="174.312" y="258.366" type="curve" smooth="yes"/>
      <point x="183.897" y="263.79"/>
      <point x="197.76" y="274.885"/>
      <point x="206.313" y="280.54" type="curve" smooth="yes"/>
      <point x="212.567" y="284.688"/>
      <point x="213.059" y="294.688"/>
      <point x="219.441" y="299.684" type="curve"/>
      <point x="227.092" y="234.487"/>
      <point x="225.984" y="165.684"/>
      <point x="223.792" y="100.374" type="curve" smooth="yes"/>
      <point x="223.19" y="81.9355"/>
      <point x="234.956" y="55.0039"/>
      <point x="219.74" y="40.6455" type="curve"/>
      <point x="219.74" y="38.333" type="line"/>
      <point x="228.339" y="40.6455" type="line"/>
      <point x="228.79" y="30.9521"/>
      <point x="242.28" y="-27.7461"/>
      <point x="262.268" y="-5.02148" type="curve" smooth="yes"/>
      <point x="271.982" y="6.01758"/>
      <point x="260.096" y="20.251"/>
      <point x="269.724" y="29.0859" type="curve"/>
      <point x="261.129" y="31.3984" type="line"/>
      <point x="260.678" y="55.0137"/>
      <point x="248.289" y="104.431"/>
      <point x="261.979" y="123.886" type="curve"/>
      <point x="261.979" y="126.198" type="line"/>
      <point x="261.979" y="128.511" type="line"/>
      <point x="247.773" y="148.689"/>
      <point x="258.681" y="211.751"/>
      <point x="258.681" y="211.751" type="curve"/>
      <point x="258.681" y="216.377" type="line"/>
      <point x="258.681" y="216.377"/>
      <point x="244.476" y="290.328"/>
      <point x="260.83" y="313.556" type="curve"/>
      <point x="260.83" y="315.868" type="line"/>
      <point x="247.527" y="334.747"/>
      <point x="258.359" y="380.836"/>
      <point x="258.531" y="403.733" type="curve"/>
      <point x="260.681" y="403.733" type="line"/>
      <point x="260.681" y="394.482" type="line"/>
      <point x="262.83" y="394.482" type="line"/>
      <point x="262.83" y="433.79" type="line"/>
      <point x="256.382" y="431.482" type="line"/>
      <point x="255.63" y="445.624"/>
      <point x="267.493" y="496.25"/>
      <point x="249.892" y="499.315" type="curve" smooth="yes"/>
      <point x="249.579" y="499.37"/>
      <point x="249.258" y="499.375"/>
      <point x="248.934" y="499.332" type="curve"/>
    </contour>
    <contour>
      <point x="217.296" y="355.176" type="curve"/>
      <point x="221.591" y="301.997" type="line"/>
      <point x="193.286" y="313.271"/>
      <point x="194.722" y="300.434"/>
      <point x="172.564" y="285.649" type="curve" smooth="yes"/>
      <point x="155.801" y="274.465"/>
      <point x="131.524" y="243.19"/>
      <point x="116.137" y="229.134" type="curve" smooth="yes"/>
      <point x="107.583" y="221.318"/>
      <point x="89.8584" y="201.751"/>
      <point x="77.2217" y="202.089" type="curve" smooth="yes"/>
      <point x="59.4912" y="202.562"/>
      <point x="77.7148" y="234.468"/>
      <point x="81.8418" y="239.751" type="curve" smooth="yes"/>
      <point x="104.429" y="268.668"/>
      <point x="139.281" y="308.096"/>
      <point x="172.163" y="323.366" type="curve"/>
      <point x="172.163" y="316.428" type="line"/>
      <point x="178.607" y="318.74" type="line"/>
      <point x="171.988" y="332.871"/>
      <point x="207.345" y="349.693"/>
    </contour>
    <contour>
      <point x="53.6621" y="371.863" type="line"/>
      <point x="60.1104" y="371.863" type="line"/>
      <point x="58.1104" y="357.991" type="line"/>
      <point x="53.8115" y="357.991" type="line"/>
    </contour>
    <contour>
      <point x="53.8115" y="351.054" type="line"/>
      <point x="58.1104" y="351.054" type="line"/>
      <point x="58.1104" y="337.182" type="line"/>
      <point x="53.8115" y="337.182" type="line"/>
    </contour>
    <contour>
      <point x="55.9609" y="332.556" type="line"/>
      <point x="60.2559" y="332.556" type="line"/>
      <point x="60.7285" y="316.555"/>
      <point x="69.8652" y="296.234"/>
      <point x="53.8115" y="286.311" type="curve"/>
    </contour>
    <contour>
      <point x="70.4521" y="269.808" type="line"/>
      <point x="68.3027" y="267.495" type="line"/>
    </contour>
  </outline>
</glyph>
<glyph name="uni0423" format="2">
  <advance width="308"/>
  <unicode hex="0423"/>
  <outline>
    <contour>
      <point x="64.0986" y="504.054" type="curve" smooth="yes"/>
      <point x="50.1484" y="503.144"/>
      <point x="45.5342" y="459.123"/>
      <point x="45.7705" y="452.325" type="curve" smooth="yes"/>
      <point x="46.9482" y="418.346"/>
      <point x="53.1992" y="390.415"/>
      <point x="54.0957" y="356.678" type="curve" smooth="yes"/>
      <point x="54.4326" y="343.832"/>
      <point x="42.6299" y="329.122"/>
      <point x="46.666" y="316.814" type="curve" smooth="yes"/>
      <point x="50.0576" y="306.414"/>
      <point x="63.9346" y="299.979"/>
      <point x="70.6338" y="290.902" type="curve"/>
      <point x="56.6152" y="290.902" type="line"/>
      <point x="48.2061" y="264.78"/>
      <point x="86.6367" y="263.388"/>
      <point x="109.875" y="252.613" type="curve" smooth="yes"/>
      <point x="150.688" y="233.69"/>
      <point x="209.296" y="204.101"/>
      <point x="219.639" y="167.329" type="curve"/>
      <point x="234" y="67"/>
      <point x="216.879" y="45.7295"/>
      <point x="160.33" y="14.2119" type="curve" smooth="yes"/>
      <point x="146.903" y="6.79785"/>
      <point x="113.521" y="-20.0078"/>
      <point x="93.5615" y="-12.4287" type="curve" smooth="yes"/>
      <point x="64.6338" y="-1.44629"/>
      <point x="68.4189" y="61.5557"/>
      <point x="66.7363" y="81.8018" type="curve" smooth="yes"/>
      <point x="66.0361" y="90.0371"/>
      <point x="60.5127" y="111.506"/>
      <point x="42.8818" y="109.685" type="curve" smooth="yes"/>
      <point x="28.333" y="108.178"/>
      <point x="32.0332" y="90.1592"/>
      <point x="34.1914" y="83.6162" type="curve" smooth="yes"/>
      <point x="39.9309" y="66.216"/>
      <point x="38.2012" y="66.0938"/>
      <point x="38" y="56" type="curve"/>
      <point x="40" y="31" type="line"/>
      <point x="40" y="31"/>
      <point x="44" y="15"/>
      <point x="42" y="9" type="curve" smooth="yes"/>
      <point x="40.1325" y="3.39755"/>
      <point x="45" y="-6"/>
      <point x="43" y="-14" type="curve"/>
      <point x="46" y="-23"/>
      <point x="52" y="-25"/>
      <point x="59" y="-30" type="curve" smooth="yes"/>
      <point x="62" y="-32" type="line"/>
      <point x="70" y="-43" type="line"/>
      <point x="82" y="-48"/>
      <point x="81.0264" y="-44.959"/>
      <point x="93" y="-50" type="curve" smooth="yes"/>
      <point x="98.629" y="-52.3699"/>
      <point x="113.153" y="-53.5633"/>
      <point x="118" y="-50" type="curve" smooth="yes"/>
      <point x="132.674" y="-39.2117"/>
      <point x="129.854" y="-41.1282"/>
      <point x="130" y="-41" type="curve" smooth="yes"/>
      <point x="146" y="-27"/>
      <point x="150.101" y="-20.7432"/>
      <point x="165.686" y="-14.6621" type="curve" smooth="yes"/>
      <point x="192.37" y="-4.25003"/>
      <point x="243.846" y="13.0879"/>
      <point x="250.91" y="34.7334" type="curve" smooth="yes"/>
      <point x="259.403" y="60.9033"/>
      <point x="251.916" y="84.5645"/>
      <point x="252.926" y="110.473" type="curve" smooth="yes"/>
      <point x="255.336" y="173.192"/>
      <point x="250.237" y="251.925"/>
      <point x="256.18" y="314.74" type="curve" smooth="yes"/>
      <point x="258.506" y="339.322"/>
      <point x="246.059" y="413.242"/>
      <point x="265.652" y="433.511" type="curve"/>
      <point x="265.652" y="435.505" type="line"/>
      <point x="259.009" y="441.763"/>
      <point x="260.438" y="446.775"/>
      <point x="265.652" y="453.442" type="curve"/>
      <point x="250.011" y="463.769"/>
      <point x="262.027" y="486.564"/>
      <point x="269.652" y="499.286" type="curve"/>
      <point x="260.878" y="503.284"/>
      <point x="258.162" y="517.438"/>
      <point x="244.483" y="513.065" type="curve" smooth="yes"/>
      <point x="216.648" y="504.16"/>
      <point x="227.184" y="475.776"/>
      <point x="225.726" y="459.423" type="curve" smooth="yes"/>
      <point x="220.849" y="404.201"/>
      <point x="222" y="318.34"/>
      <point x="222" y="263" type="curve"/>
      <point x="207.957" y="268.326"/>
      <point x="204.474" y="280.34"/>
      <point x="194.551" y="288.908" type="curve" smooth="yes"/>
      <point x="177.144" y="303.923"/>
      <point x="154.668" y="318.209"/>
      <point x="132.299" y="329.492" type="curve" smooth="yes"/>
      <point x="120.526" y="335.426"/>
      <point x="91.7402" y="336.138"/>
      <point x="85.21" y="345.272" type="curve" smooth="yes"/>
      <point x="74.0811" y="360.775"/>
      <point x="81.9512" y="378.592"/>
      <point x="83.5488" y="393.775" type="curve"/>
      <point x="74.3896" y="412.832"/>
      <point x="75.3086" y="453.431"/>
      <point x="72.2578" y="476.243" type="curve"/>
      <point x="71.1094" y="482.347"/>
      <point x="75.8174" y="500.635"/>
      <point x="67.0156" y="503.639" type="curve" smooth="yes"/>
      <point x="66.001" y="503.984"/>
      <point x="65.0293" y="504.114"/>
    </contour>
    <contour>
      <point x="97.582" y="309.164" type="curve" smooth="yes"/>
      <point x="128.296" y="309.756"/>
      <point x="197.824" y="254.207"/>
      <point x="204.804" y="236.993" type="curve"/>
      <point x="202" y="235" type="line"/>
      <point x="73.4375" y="292.896" type="line"/>
      <point x="78.6582" y="304.314"/>
      <point x="87.3447" y="308.967"/>
    </contour>
  </outline>
</glyph>
<glyph name="uni0426" format="2">
  <advance width="339"/>
  <unicode hex="0426"/>
  <outline>
    <contour>
      <point x="254.094" y="515.021" type="line"/>
      <point x="224.462" y="496.248"/>
      <point x="227.775" y="510.377"/>
      <point x="221.7" y="509.019" type="curve"/>
      <point x="222.533" y="484.641"/>
      <point x="243.521" y="451.004"/>
      <point x="217.077" y="432.994" type="curve"/>
      <point x="217.077" y="430.993" type="line"/>
      <point x="209.21" y="421.65"/>
      <point x="221.562" y="399.891"/>
      <point x="224.015" y="388.979" type="curve" smooth="yes"/>
      <point x="230.632" y="359.572"/>
      <point x="221.377" y="325.756"/>
      <point x="226.329" y="294.95" type="curve" smooth="yes"/>
      <point x="227.509" y="287.578"/>
      <point x="243.589" y="254.606"/>
      <point x="228.643" y="252.939" type="curve"/>
      <point x="228.643" y="250.938" type="line"/>
      <point x="235.585" y="250.938" type="line"/>
      <point x="228.957" y="181.921" type="line"/>
      <point x="235.376" y="181.28"/>
      <point x="234.079" y="164.444"/>
      <point x="235.948" y="148.92" type="curve" smooth="yes"/>
      <point x="238.47" y="134.04"/>
      <point x="226.892" y="102.19"/>
      <point x="235.567" y="89.0205" type="curve" smooth="yes"/>
      <point x="249.773" y="67.4238"/>
      <point x="259.332" y="115.668"/>
      <point x="260.559" y="123.903" type="curve" smooth="yes"/>
      <point x="266.551" y="163.899"/>
      <point x="250.257" y="226.06"/>
      <point x="268.858" y="262.941" type="curve"/>
      <point x="261.916" y="264.942" type="line"/>
      <point x="259.362" y="273.037"/>
      <point x="253.363" y="280.873"/>
      <point x="258.23" y="284.948" type="curve"/>
      <point x="249.347" y="310.227"/>
      <point x="265.703" y="330.808"/>
      <point x="263.297" y="354.932" type="curve" smooth="yes"/>
      <point x="262.15" y="366.424"/>
      <point x="261.603" y="405.776"/>
      <point x="256.629" y="398" type="curve"/>
      <point x="252" y="398" type="line"/>
      <point x="253.2" y="446.964" type="line"/>
      <point x="248.536" y="475.009" type="line"/>
    </contour>
    <contour>
      <point x="63.6318" y="506.31" type="curve" smooth="yes"/>
      <point x="62.8428" y="506.371"/>
      <point x="61.9961" y="506.31"/>
      <point x="61.0928" y="506.096" type="curve" smooth="yes"/>
      <point x="46.9795" y="502.824"/>
      <point x="50.543" y="477.645"/>
      <point x="42.376" y="469.006" type="curve"/>
      <point x="42.376" y="467.005" type="line"/>
      <point x="42.376" y="438.998" type="line"/>
      <point x="44.6904" y="438.998" type="line"/>
      <point x="44.6904" y="443" type="line"/>
      <point x="47" y="443" type="line"/>
      <point x="47" y="390.98" type="line"/>
      <point x="44.6904" y="390.98" type="line"/>
      <point x="44.6904" y="394.982" type="line"/>
      <point x="42.376" y="394.982" type="line"/>
      <point x="51.0293" y="366.021"/>
      <point x="48.3223" y="337.072"/>
      <point x="48.3223" y="306.956" type="curve" smooth="yes"/>
      <point x="48.3223" y="297.785"/>
      <point x="54.1992" y="282.937"/>
      <point x="44.6904" y="276.944" type="curve"/>
      <point x="44.6904" y="274.947" type="line"/>
      <point x="56.5361" y="259.375"/>
      <point x="50.8408" y="230.881"/>
      <point x="50.6328" y="212.927" type="curve" smooth="yes"/>
      <point x="50.0537" y="165.276"/>
      <point x="57.6641" y="109.5"/>
      <point x="55.5352" y="61.8828" type="curve" smooth="yes"/>
      <point x="55.165" y="53.334"/>
      <point x="58.543" y="39.5742"/>
      <point x="55.7207" y="31.9023" type="curve" smooth="yes"/>
      <point x="51.7646" y="21.1543"/>
      <point x="29.9697" y="13.0586"/>
      <point x="43.0889" y="0.486328" type="curve" smooth="yes"/>
      <point x="63.0781" y="-18.6797"/>
      <point x="113.359" y="8.07031"/>
      <point x="132.608" y="18.4121" type="curve" smooth="yes"/>
      <point x="152.09" y="28.875"/>
      <point x="183.259" y="25.5996"/>
      <point x="202.763" y="36.2109" type="curve" smooth="yes"/>
      <point x="220.138" y="45.6758"/>
      <point x="238.784" y="47.5889"/>
      <point x="258.288" y="53.3291" type="curve" smooth="yes"/>
      <point x="268.815" y="56.4297"/>
      <point x="279.646" y="55.5723"/>
      <point x="274.487" y="44.8809" type="curve"/>
      <point x="274.487" y="42.8799" type="line"/>
      <point x="274.487" y="40.8828" type="line"/>
      <point x="286.402" y="27.2871"/>
      <point x="280.85" y="4.48242"/>
      <point x="280.85" y="-11.1357" type="curve" smooth="yes"/>
      <point x="280.85" y="-38.5986"/>
      <point x="280.224" y="-57.6709"/>
      <point x="289.363" y="-84.0469" type="curve" smooth="yes"/>
      <point x="292.532" y="-93.1514"/>
      <point x="303.593" y="-90.0508"/>
      <point x="309.354" y="-96.6348" type="curve" smooth="yes"/>
      <point x="314.351" y="-102.33"/>
      <point x="297.209" y="-114.08"/>
      <point x="302.646" y="-118.011" type="curve" smooth="yes"/>
      <point x="313.589" y="-125.905"/>
      <point x="312.432" y="-73.7432"/>
      <point x="312.27" y="-68.2373" type="curve" smooth="yes"/>
      <point x="311.853" y="-54.7734"/>
      <point x="309.515" y="-45.6348"/>
      <point x="310.07" y="-32.1484" type="curve" smooth="yes"/>
      <point x="310.232" y="-29.9932"/>
      <point x="307.737" y="-32.2188"/>
      <point x="310.07" y="-28.1426" type="curve"/>
      <point x="307.826" y="-2.23438"/>
      <point x="319.788" y="27.0078"/>
      <point x="308.938" y="50.6553" type="curve" smooth="yes"/>
      <point x="305.583" y="57.9189"/>
      <point x="309.535" y="67.7266"/>
      <point x="304.677" y="74.0762" type="curve" smooth="yes"/>
      <point x="301.16" y="78.6514"/>
      <point x="302.71" y="92.8975"/>
      <point x="296.787" y="95.4121" type="curve" smooth="yes"/>
      <point x="280.869" y="102.194"/>
      <point x="257.41" y="66.1133"/>
      <point x="242.094" y="78.8926" type="curve"/>
      <point x="195.358" y="68.3193"/>
      <point x="169.783" y="79.0967"/>
      <point x="92" y="45" type="curve"/>
      <point x="100" y="67" type="line"/>
      <point x="136.509" y="80.8848"/>
      <point x="170.579" y="92.4043"/>
      <point x="200.448" y="114.898" type="curve"/>
      <point x="200.448" y="116.899" type="line"/>
      <point x="179.487" y="126.037"/>
      <point x="143.366" y="109.17"/>
      <point x="125.666" y="100.764" type="curve" smooth="yes"/>
      <point x="120.461" y="98.2891"/>
      <point x="106.419" y="90.293"/>
      <point x="100.357" y="93.5361" type="curve" smooth="yes"/>
      <point x="88.9512" y="99.6396"/>
      <point x="105.724" y="139.677"/>
      <point x="104.22" y="148.897" type="curve" smooth="yes"/>
      <point x="102.415" y="160.193"/>
      <point x="88.3457" y="159.659"/>
      <point x="83.7646" y="169.03" type="curve" smooth="yes"/>
      <point x="72.0342" y="193.04"/>
      <point x="79.3926" y="229.379"/>
      <point x="79.3926" y="254.941" type="curve" smooth="yes"/>
      <point x="79.3926" y="265.408"/>
      <point x="76.9424" y="277.036"/>
      <point x="88.6494" y="282.947" type="curve"/>
      <point x="82.2178" y="305.673"/>
      <point x="92.6055" y="322.715"/>
      <point x="89.459" y="344.93" type="curve" smooth="yes"/>
      <point x="88.2793" y="353.194"/>
      <point x="79.0459" y="355.749"/>
      <point x="76.3623" y="363.081" type="curve" smooth="yes"/>
      <point x="71.9199" y="375.312"/>
      <point x="72.9619" y="422.999"/>
      <point x="81.707" y="432.994" type="curve"/>
      <point x="81.707" y="434.996" type="line"/>
      <point x="75.1367" y="443.389"/>
      <point x="72.0586" y="460.627"/>
      <point x="79.3926" y="469.006" type="curve"/>
      <point x="75.0547" y="475.76"/>
      <point x="75.4775" y="505.391"/>
    </contour>
  </outline>
</glyph>
<glyph name="uni042B" format="2">
  <advance width="430"/>
  <unicode hex="042B"/>
  <outline>
    <contour>
      <point x="73.4014" y="512.81" type="curve"/>
      <point x="71.1904" y="493.201" type="line"/>
      <point x="71.1904" y="490.399" type="line"/>
      <point x="75.2578" y="487.299"/>
      <point x="78.0654" y="483.948"/>
      <point x="71.1904" y="479.197" type="curve" smooth="yes"/>
      <point x="47.3623" y="462.72"/>
      <point x="55.7148" y="456.511"/>
      <point x="55.7148" y="425.962" type="curve" smooth="yes"/>
      <point x="55.7148" y="415.586"/>
      <point x="54.0156" y="393.587"/>
      <point x="49.0869" y="395.146" type="curve"/>
      <point x="57.9258" y="307.3" type="line"/>
      <point x="53.5078" y="279.286" type="line"/>
      <point x="56.3594" y="269.518"/>
      <point x="57.1553" y="264.778"/>
      <point x="51.2969" y="256.876" type="curve"/>
      <point x="60.7803" y="248.864"/>
      <point x="57.9258" y="235.262"/>
      <point x="57.9258" y="220.462" type="curve" smooth="yes"/>
      <point x="57.9258" y="191.614"/>
      <point x="60.1367" y="157.721"/>
      <point x="60.1367" y="128.016" type="curve" smooth="yes"/>
      <point x="60.1367" y="117.286"/>
      <point x="53.1533" y="95.9111"/>
      <point x="49.0869" y="97.2002" type="curve"/>
      <point x="62.3477" y="74.79" type="line"/>
      <point x="55.7148" y="74.79" type="line"/>
      <point x="62.4121" y="33.1201"/>
      <point x="44.9736" y="-13.3506"/>
      <point x="82.2412" y="-34.4199" type="curve" smooth="yes"/>
      <point x="92.1211" y="-40.0117"/>
      <point x="100.276" y="-44.3301"/>
      <point x="110.843" y="-37.8115" type="curve" smooth="yes"/>
      <point x="126.912" y="-27.8945"/>
      <point x="129.545" y="2.44922"/>
      <point x="150.963" y="7.60352" type="curve" smooth="yes"/>
      <point x="166.635" y="11.3799"/>
      <point x="191.614" y="23.4854"/>
      <point x="207.309" y="21.6396" type="curve" smooth="yes"/>
      <point x="220.173" y="20.124"/>
      <point x="236.506" y="-4.95801"/>
      <point x="247.712" y="16.6035" type="curve" smooth="yes"/>
      <point x="257.505" y="35.4678"/>
      <point x="238.253" y="56.2764"/>
      <point x="239.38" y="77.5918" type="curve" smooth="yes"/>
      <point x="241.215" y="112.631"/>
      <point x="238.099" y="154.004"/>
      <point x="243.713" y="188.142" type="curve" smooth="yes"/>
      <point x="248.002" y="214.303"/>
      <point x="262.124" y="258.427"/>
      <point x="248" y="284" type="curve" smooth="yes"/>
      <point x="242.673" y="293.648"/>
      <point x="231.11" y="288.662"/>
      <point x="223.706" y="293.296" type="curve"/>
      <point x="221.495" y="293.296" type="line"/>
      <point x="206.619" y="275.252"/>
      <point x="177.088" y="289.573"/>
      <point x="159.604" y="295.111" type="curve" smooth="yes"/>
      <point x="154.343" y="296.781"/>
      <point x="126.312" y="301.925"/>
      <point x="128.921" y="310.102" type="curve"/>
      <point x="128.921" y="312.903" type="line"/>
      <point x="87.2109" y="314.234"/>
      <point x="91.4766" y="356.426"/>
      <point x="84.7129" y="392.351" type="curve"/>
      <point x="91.3447" y="403.553" type="line"/>
      <point x="63.2734" y="425.263"/>
      <point x="109.873" y="490.076"/>
    </contour>
    <contour>
      <point x="344.077" y="516.907" type="curve" smooth="yes"/>
      <point x="334.391" y="516.391"/>
      <point x="330.384" y="474.382"/>
      <point x="330.105" y="466.184" type="curve" smooth="yes"/>
      <point x="327.807" y="399.714"/>
      <point x="337.688" y="326.768"/>
      <point x="334.637" y="260.286" type="curve" smooth="yes"/>
      <point x="333.73" y="240.943"/>
      <point x="339.411" y="208.777"/>
      <point x="330.017" y="193.057" type="curve"/>
      <point x="330.017" y="190.255" type="line"/>
      <point x="330.017" y="187.452" type="line"/>
      <point x="350.993" y="152.354"/>
      <point x="325.883" y="75.5654"/>
      <point x="335.145" y="33.6797" type="curve" smooth="yes"/>
      <point x="339.101" y="15.7461"/>
      <point x="366.312" y="9.60938"/>
      <point x="352.121" y="-14.2412" type="curve"/>
      <point x="352.121" y="-17.043" type="line"/>
      <point x="360.964" y="-17.043" type="line"/>
      <point x="364.833" y="-26.7783"/>
      <point x="372.063" y="-14.7295"/>
      <point x="374.225" y="-14.2412" type="curve"/>
      <point x="374.225" y="-0.237305" type="line"/>
      <point x="372.015" y="-0.237305" type="line"/>
      <point x="372.015" y="-5.84082" type="line"/>
      <point x="369.803" y="-5.84082" type="line"/>
      <point x="372.301" y="66.8789"/>
      <point x="367.686" y="139.331"/>
      <point x="367.332" y="212.664" type="curve" smooth="yes"/>
      <point x="367.066" y="265.663"/>
      <point x="361.563" y="333.683"/>
      <point x="371.068" y="384.944" type="curve"/>
      <point x="368.857" y="384.944" type="line"/>
      <point x="364.436" y="379.341" type="line"/>
      <point x="362.16" y="393.096"/>
      <point x="360.229" y="403.816"/>
      <point x="356.405" y="415.76" type="curve"/>
      <point x="355.175" y="415.76" type="line"/>
      <point x="355.175" y="419.944" type="line"/>
      <point x="353.902" y="424.739"/>
      <point x="352.477" y="429.813"/>
      <point x="352.964" y="435.368" type="curve" smooth="yes"/>
      <point x="355.175" y="460.58"/>
      <point x="353.978" y="471.086"/>
      <point x="350.507" y="491.508" type="curve" smooth="yes"/>
      <point x="349.313" y="498.478"/>
      <point x="353.511" y="514.989"/>
      <point x="345.045" y="516.827" type="curve" smooth="yes"/>
      <point x="344.712" y="516.898"/>
      <point x="344.39" y="516.924"/>
    </contour>
    <contour>
      <point x="355.175" y="419.944" type="line"/>
      <point x="355.551" y="418.528"/>
      <point x="355.964" y="417.137"/>
      <point x="356.405" y="415.76" type="curve"/>
      <point x="357.382" y="415.76" type="line"/>
      <point x="355.175" y="424.16" type="line"/>
    </contour>
    <contour>
      <point x="68.9795" y="498.806" type="line"/>
      <point x="71.1904" y="496.003" type="line"/>
    </contour>
    <contour>
      <point x="355.175" y="460.58" type="line"/>
      <point x="357.382" y="457.778" type="line"/>
    </contour>
    <contour>
      <point x="373.279" y="356.931" type="line"/>
      <point x="375.485" y="354.129" type="line"/>
    </contour>
    <contour>
      <point x="252.442" y="293.296" type="line"/>
      <point x="254.653" y="290.494" type="line"/>
    </contour>
    <contour>
      <point x="103.803" y="273.993" type="curve" smooth="yes"/>
      <point x="105.377" y="274.021"/>
      <point x="107.121" y="273.725"/>
      <point x="109.027" y="273.045" type="curve" smooth="yes"/>
      <point x="127.33" y="266.529"/>
      <point x="154.435" y="235.039"/>
      <point x="175.079" y="242.872" type="curve"/>
      <point x="172.869" y="254.074" type="line"/>
      <point x="178.793" y="257.26"/>
      <point x="184.031" y="259.444"/>
      <point x="190.552" y="259.587" type="curve" smooth="yes"/>
      <point x="239.623" y="260.657"/>
      <point x="214.756" y="220.178"/>
      <point x="212.943" y="175.637" type="curve" smooth="yes"/>
      <point x="211.992" y="152.033"/>
      <point x="219.662" y="120.664"/>
      <point x="208.234" y="100.002" type="curve"/>
      <point x="214.865" y="91.6113"/>
      <point x="211.614" y="82.9414"/>
      <point x="211.548" y="71.9883" type="curve" smooth="yes"/>
      <point x="211.371" y="38.4844"/>
      <point x="175.079" y="42.9424"/>
      <point x="150.765" y="28.1006" type="curve" smooth="yes"/>
      <point x="142.696" y="23.1846"/>
      <point x="109.406" y="6.3877"/>
      <point x="100.366" y="10.2822" type="curve" smooth="yes"/>
      <point x="74.1279" y="21.6045"/>
      <point x="93.0703" y="101.262"/>
      <point x="93.0703" y="122.412" type="curve" smooth="yes"/>
      <point x="93.0703" y="133.844"/>
      <point x="81.1787" y="157.669"/>
      <point x="95.7666" y="161.633" type="curve"/>
      <point x="95.7666" y="164.435" type="line"/>
      <point x="89.1338" y="164.435" type="line"/>
      <point x="89.1338" y="175.343"/>
      <point x="85.666" y="198.686"/>
      <point x="91.4131" y="207.524" type="curve" smooth="yes"/>
      <point x="104.918" y="228.315"/>
      <point x="187.171" y="179.443"/>
      <point x="198.93" y="218.233" type="curve" smooth="yes"/>
      <point x="202.444" y="229.767"/>
      <point x="185.245" y="224.759"/>
      <point x="181.708" y="224.576" type="curve" smooth="yes"/>
      <point x="160.753" y="223.504"/>
      <point x="117.186" y="231.461"/>
      <point x="100.319" y="247.913" type="curve" smooth="yes"/>
      <point x="90.2236" y="257.767"/>
      <point x="92.7871" y="273.787"/>
    </contour>
    <contour>
      <point x="99.457" y="264.35" type="line"/>
      <point x="100.916" y="263.412" type="line"/>
    </contour>
    <contour>
      <point x="179.497" y="237.269" type="line"/>
      <point x="181.708" y="234.466" type="line"/>
    </contour>
    <contour>
      <point x="100.188" y="234.466" type="curve"/>
      <point x="106.816" y="228.862" type="line"/>
      <point x="106.816" y="226.061" type="line"/>
      <point x="101.622" y="226.884"/>
      <point x="98.0889" y="227.443"/>
    </contour>
    <contour>
      <point x="357.803" y="193.057" type="line"/>
      <point x="357.803" y="176.25" type="line"/>
      <point x="355.593" y="176.25" type="line"/>
    </contour>
    <contour>
      <point x="52.0244" y="207.385" type="line"/>
      <point x="52.7764" y="205.521" type="line"/>
    </contour>
    <contour>
      <point x="122.293" y="198.047" type="line"/>
      <point x="124.504" y="195.25" type="line"/>
    </contour>
    <contour>
      <point x="330.017" y="64.1953" type="line"/>
      <point x="332.228" y="61.3936" type="line"/>
    </contour>
    <contour>
      <point x="170.658" y="52.3799" type="line"/>
      <point x="172.869" y="49.5781" type="line"/>
    </contour>
    <contour>
      <point x="159.604" y="46.7764" type="line"/>
      <point x="161.814" y="43.9746" type="line"/>
    </contour>
    <contour>
      <point x="77.8193" y="38.3701" type="curve"/>
      <point x="80.0293" y="-12.0527" type="line"/>
      <point x="70.5693" y="-1.46973"/>
      <point x="63.1201" y="30.8633"/>
    </contour>
    <contour>
      <point x="130.871" y="-14.8496" type="line"/>
      <point x="133.082" y="-17.6514" type="line"/>
    </contour>
    <contour>
      <point x="62.3477" y="-34.4629" type="line"/>
      <point x="64.5586" y="-37.2646" type="line"/>
    </contour>
    <contour>
      <point x="122.027" y="-37.2646" type="line"/>
      <point x="124.238" y="-40.0664" type="line"/>
    </contour>
  </outline>
</glyph>
<glyph name="uni042C" format="2">
  <advance width="256"/>
  <unicode hex="042C"/>
  <outline>
    <contour>
      <point x="61.6279" y="511.145" type="curve" smooth="yes"/>
      <point x="60.5859" y="511.165"/>
      <point x="59.4287" y="510.913"/>
      <point x="58.1494" y="510.331" type="curve" smooth="yes"/>
      <point x="45.9102" y="504.774"/>
      <point x="48.6953" y="472.994"/>
      <point x="46.9307" y="461.267" type="curve" smooth="yes"/>
      <point x="45.0752" y="449.12"/>
      <point x="36.001" y="441.693"/>
      <point x="35.1182" y="429.119" type="curve" smooth="yes"/>
      <point x="32.7207" y="395.604"/>
      <point x="46.3857" y="326.918"/>
      <point x="28.1963" y="300.736" type="curve"/>
      <point x="28.1963" y="298.06" type="line"/>
      <point x="43.2412" y="286.528"/>
      <point x="40.0732" y="219.882"/>
      <point x="28.1963" y="207.096" type="curve"/>
      <point x="28.1963" y="204.419" type="line"/>
      <point x="34.9844" y="207.096" type="line"/>
      <point x="38.2881" y="157.698"/>
      <point x="37.3838" y="107.177"/>
      <point x="37.2471" y="57.2686" type="curve" smooth="yes"/>
      <point x="37.2021" y="40.25"/>
      <point x="32.542" y="10.7646"/>
      <point x="41.1846" y="-3.77344" type="curve" smooth="yes"/>
      <point x="79.5547" y="-68.2715"/>
      <point x="87" y="-7"/>
      <point x="196.493" y="-0.764648" type="curve" smooth="yes"/>
      <point x="207.287" y="-0.150391"/>
      <point x="208.416" y="-13.708"/>
      <point x="217.353" y="-14.8721" type="curve" smooth="yes"/>
      <point x="218.076" y="-14.9678"/>
      <point x="244.838" y="11.0615"/>
      <point x="246.557" y="13.7715" type="curve" smooth="yes"/>
      <point x="255.516" y="27.8477"/>
      <point x="230.766" y="36.3369"/>
      <point x="230.154" y="49.292" type="curve" smooth="yes"/>
      <point x="228.525" y="84.1855"/>
      <point x="229.931" y="120.747"/>
      <point x="230.496" y="156.261" type="curve" smooth="yes"/>
      <point x="230.7" y="168.986"/>
      <point x="238.186" y="184.555"/>
      <point x="234.204" y="196.396" type="curve" smooth="yes"/>
      <point x="218.073" y="244.59"/>
      <point x="201.31" y="197.432"/>
      <point x="176.785" y="214.868" type="curve" smooth="yes"/>
      <point x="158.311" y="228.004"/>
      <point x="147.643" y="227.92"/>
      <point x="134" y="245" type="curve" smooth="yes"/>
      <point x="114.588" y="269.304"/>
      <point x="97.5566" y="280.216"/>
      <point x="80" y="307" type="curve" smooth="yes"/>
      <point x="61.3866" y="335.396"/>
      <point x="67.2705" y="442.507"/>
      <point x="70.5283" y="477.318" type="curve" smooth="yes"/>
      <point x="71.229" y="484.805"/>
      <point x="71.6992" y="510.93"/>
    </contour>
    <contour>
      <point x="71.1816" y="279.333" type="curve"/>
      <point x="75.707" y="279.333" type="line"/>
      <point x="89.168" y="243.217"/>
      <point x="128.08" y="216.196"/>
      <point x="157.151" y="199.769" type="curve" smooth="yes"/>
      <point x="168.531" y="193.339"/>
      <point x="194.659" y="194.257"/>
      <point x="198.414" y="177.511" type="curve" smooth="yes"/>
      <point x="202.69" y="158.48"/>
      <point x="197.193" y="139.745"/>
      <point x="196.221" y="121.269" type="curve" smooth="yes"/>
      <point x="195.384" y="104.939"/>
      <point x="201.513" y="87.627"/>
      <point x="200.699" y="70.6484" type="curve" smooth="yes"/>
      <point x="200.269" y="61.7607"/>
      <point x="205.249" y="44.3857"/>
      <point x="199.955" y="37.4727" type="curve" smooth="yes"/>
      <point x="186.517" y="19.9316"/>
      <point x="122.63" y="33.7314"/>
      <point x="102.856" y="33.1484" type="curve" smooth="yes"/>
      <point x="94.3506" y="32.8994"/>
      <point x="81.5918" y="27.2754"/>
      <point x="74.4658" y="34.8066" type="curve" smooth="yes"/>
      <point x="65.1445" y="44.6309"/>
      <point x="70.5703" y="73.1299"/>
      <point x="68.9189" y="86.7002" type="curve"/>
      <point x="73.4443" y="94.7275" type="line"/>
      <point x="63.3311" y="96.6191"/>
      <point x="67.1553" y="160.023"/>
      <point x="73.4443" y="169.642" type="curve"/>
      <point x="64.5752" y="176.432"/>
      <point x="66.1807" y="188.127"/>
      <point x="68.9189" y="199.067" type="curve"/>
      <point x="81.543" y="194.434"/>
      <point x="92.9707" y="186.143"/>
      <point x="105.119" y="180.003" type="curve" smooth="yes"/>
      <point x="112.495" y="176.272"/>
      <point x="120.232" y="174.097"/>
      <point x="127.743" y="170.859" type="curve" smooth="yes"/>
      <point x="141.702" y="164.845"/>
      <point x="183.238" y="158.767"/>
      <point x="152.583" y="186.266" type="curve" smooth="yes"/>
      <point x="130.593" y="205.989"/>
      <point x="86.0713" y="219.19"/>
      <point x="70.5068" y="245.568" type="curve" smooth="yes"/>
      <point x="65.6875" y="253.704"/>
      <point x="69.123" y="270.482"/>
    </contour>
    <contour>
      <point x="145.842" y="183.017" type="line"/>
      <point x="143.579" y="180.34" type="line"/>
    </contour>
    <contour>
      <point x="93.0264" y="9.67871" type="curve" smooth="yes"/>
      <point x="97.1826" y="9.58105"/>
      <point x="101.422" y="8.43457"/>
      <point x="105.119" y="6.43457" type="curve"/>
      <point x="73.4443" y="-6.94043" type="line"/>
      <point x="75.1396" y="5.03516"/>
      <point x="83.8828" y="9.8916"/>
    </contour>
  </outline>
</glyph>
<glyph name="uni0431" format="2">
  <advance width="285"/>
  <unicode hex="0431"/>
  <outline>
    <contour>
      <point x="57" y="509" type="curve" smooth="yes"/>
      <point x="28.999" y="494.999"/>
      <point x="44.2764" y="471.784"/>
      <point x="44.8389" y="442.849" type="curve" smooth="yes"/>
      <point x="45.6973" y="398.693"/>
      <point x="46.1152" y="347.969"/>
      <point x="45.5273" y="303.554" type="curve" smooth="yes"/>
      <point x="45.2188" y="280.129"/>
      <point x="49.9297" y="258.406"/>
      <point x="40.2061" y="235.899" type="curve"/>
      <point x="51.4678" y="233.874"/>
      <point x="43.3613" y="200.833"/>
      <point x="40.2949" y="195.867" type="curve"/>
      <point x="51.0977" y="184.156"/>
      <point x="47.3438" y="171.504"/>
      <point x="47.5664" y="157.279" type="curve" smooth="yes"/>
      <point x="47.9912" y="130.197"/>
      <point x="49.3945" y="87.374"/>
      <point x="51.4805" y="60.3213" type="curve" smooth="yes"/>
      <point x="52.3779" y="48.7051"/>
      <point x="50.6758" y="24.1934"/>
      <point x="63.2354" y="19.8076" type="curve"/>
      <point x="57.1846" y="9.31738"/>
      <point x="23.3105" y="-1.60059"/>
      <point x="28.3252" y="-14.8105" type="curve" smooth="yes"/>
      <point x="33.7529" y="-29.1152"/>
      <point x="60.2529" y="-10.5586"/>
      <point x="70.5947" y="-12.7412" type="curve" smooth="yes"/>
      <point x="83.6816" y="-15.5029"/>
      <point x="88.582" y="-6.86621"/>
      <point x="100.414" y="-7.08789" type="curve" smooth="yes"/>
      <point x="122.722" y="-7.50391"/>
      <point x="144.608" y="-13.9287"/>
      <point x="166.246" y="-14.3955" type="curve" smooth="yes"/>
      <point x="174.527" y="-14.5732"/>
      <point x="181.122" y="-8.66016"/>
      <point x="189.116" y="-8.43164" type="curve" smooth="yes"/>
      <point x="203.944" y="-8.00781"/>
      <point x="237.842" y="-15.3047"/>
      <point x="249.644" y="-2.63867" type="curve"/>
      <point x="246.455" y="4.45508" type="line"/>
      <point x="211.389" y="-5.16895"/>
      <point x="158.598" y="19.1143"/>
      <point x="124.188" y="20.7744" type="curve" smooth="yes"/>
      <point x="113.646" y="21.2822"/>
      <point x="90.0703" y="12.3438"/>
      <point x="82.8594" y="20.8828" type="curve" smooth="yes"/>
      <point x="71.1768" y="34.7158"/>
      <point x="80.8496" y="59.5342"/>
      <point x="81" y="66" type="curve"/>
      <point x="82.9033" y="74.6875" type="line"/>
      <point x="81.6143" y="112.956"/>
      <point x="77.1484" y="165.665"/>
      <point x="78.4727" y="204.734" type="curve" smooth="yes"/>
      <point x="78.8281" y="215.209"/>
      <point x="73.71" y="237.269"/>
      <point x="83.4014" y="245.173" type="curve" smooth="yes"/>
      <point x="89.3242" y="250.004"/>
      <point x="97.8115" y="241.371"/>
      <point x="102.982" y="238.896" type="curve" smooth="yes"/>
      <point x="115.429" y="232.935"/>
      <point x="168.245" y="216.032"/>
      <point x="172.463" y="235.663" type="curve"/>
      <point x="165.657" y="239.425" type="line"/>
      <point x="163.92" y="239.497" type="line"/>
      <point x="155.636" y="235.16"/>
      <point x="141.383" y="240.324"/>
      <point x="132.737" y="242.999" type="curve" smooth="yes"/>
      <point x="104.633" y="251.697"/>
      <point x="72.2441" y="272.104"/>
      <point x="83.1045" y="305.483" type="curve"/>
      <point x="102.306" y="290.906"/>
      <point x="118.568" y="273.484"/>
      <point x="142.418" y="266.715" type="curve" smooth="yes"/>
      <point x="151.229" y="264.217"/>
      <point x="162.836" y="258.381"/>
      <point x="171.63" y="257.657" type="curve" smooth="yes"/>
      <point x="178.939" y="257.057"/>
      <point x="185.409" y="264.972"/>
      <point x="191.993" y="258.435" type="curve" smooth="yes"/>
      <point x="200.25" y="250.237"/>
      <point x="194.064" y="229.686"/>
      <point x="195.473" y="219.051" type="curve" smooth="yes"/>
      <point x="199.886" y="185.722"/>
      <point x="193.907" y="144.657"/>
      <point x="194.083" y="111.168" type="curve" smooth="yes"/>
      <point x="194.159" y="96.8691"/>
      <point x="197.777" y="68.9824"/>
      <point x="190.049" y="56.3447" type="curve"/>
      <point x="198.042" y="48.3242"/>
      <point x="216.02" y="28.3643"/>
      <point x="225.391" y="23.0332" type="curve" smooth="yes"/>
      <point x="231.736" y="19.4229"/>
      <point x="236.623" y="31.7314"/>
      <point x="236.64" y="36.1855" type="curve" smooth="yes"/>
      <point x="236.735" y="61.0586"/>
      <point x="226.683" y="89.9805"/>
      <point x="238.451" y="113.726" type="curve"/>
      <point x="232.633" y="113.966"/>
      <point x="236.687" y="134.83"/>
      <point x="235.833" y="141.679" type="curve" smooth="yes"/>
      <point x="232.594" y="167.688"/>
      <point x="235.639" y="211.335"/>
      <point x="241.517" y="237.203" type="curve"/>
      <point x="243.11" y="233.656" type="line"/>
      <point x="245" y="239" type="line"/>
      <point x="232" y="287" type="line"/>
      <point x="228.03" y="289.97" type="line"/>
      <point x="213.491" y="274.65"/>
      <point x="180.63" y="279.952"/>
      <point x="162.23" y="282.919" type="curve" smooth="yes"/>
      <point x="140.264" y="286.46"/>
      <point x="128.447" y="299.862"/>
      <point x="112.545" y="313.965" type="curve" smooth="yes"/>
      <point x="107.31" y="318.604"/>
      <point x="99.9736" y="318.679"/>
      <point x="94.7373" y="323.234" type="curve" smooth="yes"/>
      <point x="82.415" y="333.947"/>
      <point x="81.6738" y="351.406"/>
      <point x="83.6924" y="366.333" type="curve" smooth="yes"/>
      <point x="84.8057" y="374.56"/>
      <point x="83.1777" y="392.868"/>
      <point x="88.6416" y="399.494" type="curve"/>
      <point x="88.7129" y="401.231" type="line"/>
      <point x="82.5078" y="408.67"/>
      <point x="87.2412" y="413.997"/>
      <point x="89.5732" y="422.08" type="curve"/>
      <point x="70.8027" y="478.325" type="line"/>
      <point x="104.763" y="452.78" type="line"/>
      <point x="104.548" y="447.567" type="line"/>
      <point x="108.022" y="447.425" type="line"/>
      <point x="107.314" y="463.12"/>
      <point x="134.356" y="457.063"/>
      <point x="144.927" y="456.065" type="curve" smooth="yes"/>
      <point x="173.217" y="453.395"/>
      <point x="193.871" y="469.913"/>
      <point x="222.11" y="470.53" type="curve" smooth="yes"/>
      <point x="236.488" y="470.844"/>
      <point x="248.58" y="462.271"/>
      <point x="262.107" y="469.774" type="curve"/>
      <point x="262.18" y="471.512" type="line"/>
      <point x="228.627" y="497.91"/>
      <point x="201.038" y="494.646"/>
      <point x="138" y="486" type="curve" smooth="yes"/>
      <point x="131.345" y="485.087"/>
      <point x="104.595" y="487.126"/>
      <point x="101.046" y="493.609" type="curve" smooth="yes"/>
      <point x="98.1942" y="498.819"/>
      <point x="103.336" y="495.604"/>
      <point x="97.8076" y="500.208" type="curve" smooth="yes"/>
      <point x="85.5107" y="510.447"/>
      <point x="69" y="515"/>
    </contour>
  </outline>
</glyph>
<glyph name="uni0436" format="2">
  <advance width="390"/>
  <unicode hex="0436"/>
  <outline>
    <contour>
      <point x="201.436" y="527.521" type="line" smooth="yes"/>
      <point x="195.316" y="527.586"/>
      <point x="189.313" y="522.527"/>
      <point x="187.613" y="516.82" type="curve" smooth="yes"/>
      <point x="183.19" y="501.922"/>
      <point x="189.879" y="485.852"/>
      <point x="188.213" y="471.058" type="curve" smooth="yes"/>
      <point x="187.301" y="462.914"/>
      <point x="180.102" y="456.954"/>
      <point x="177.769" y="449.214" type="curve"/>
      <point x="179.991" y="449.214" type="line"/>
      <point x="182.211" y="453.583" type="line"/>
      <point x="185.923" y="437.697"/>
      <point x="201.35" y="371.976"/>
      <point x="171.188" y="379.232" type="curve" smooth="yes"/>
      <point x="142.739" y="386.077"/>
      <point x="115.18" y="452.403"/>
      <point x="100.865" y="474.214" type="curve"/>
      <point x="98.6426" y="474.214" type="line"/>
      <point x="75.4385" y="491.688"/>
      <point x="53.123" y="537.657"/>
      <point x="36.4092" y="487.32" type="curve"/>
      <point x="34.1855" y="493.869" type="line"/>
      <point x="31.9629" y="493.869" type="line"/>
      <point x="35.3857" y="469.084"/>
      <point x="51.9443" y="468.286"/>
      <point x="66.8135" y="454.062" type="curve" smooth="yes"/>
      <point x="80.127" y="441.314"/>
      <point x="94.3506" y="415.879"/>
      <point x="106.863" y="403.076" type="curve" smooth="yes"/>
      <point x="117.821" y="391.878"/>
      <point x="137.292" y="376.839"/>
      <point x="136.358" y="359.206" type="curve" smooth="yes"/>
      <point x="135.292" y="339.256"/>
      <point x="114.49" y="318.056"/>
      <point x="103.978" y="302.421" type="curve" smooth="yes"/>
      <point x="86.374" y="276.189"/>
      <point x="71.9258" y="240.299"/>
      <point x="61.1904" y="210.698" type="curve" smooth="yes"/>
      <point x="54.7451" y="192.982"/>
      <point x="53.7881" y="171.435"/>
      <point x="58.6992" y="153.295" type="curve" smooth="yes"/>
      <point x="60.6113" y="146.25"/>
      <point x="68.4131" y="140.851"/>
      <point x="68.0127" y="133.335" type="curve" smooth="yes"/>
      <point x="66.1016" y="97.9629"/>
      <point x="59.5234" y="57.7754"/>
      <point x="52.4561" y="22.8809" type="curve" smooth="yes"/>
      <point x="47.166" y="-3.28223"/>
      <point x="36.4736" y="-26.3477"/>
      <point x="39.9629" y="-53.5547" type="curve"/>
      <point x="42.1855" y="-53.5547" type="line"/>
      <point x="54.8555" y="-35.3018"/>
      <point x="71.8584" y="9.85352"/>
      <point x="64.4121" y="31.6182" type="curve"/>
      <point x="103.619" y="49.9609"/>
      <point x="70.8789" y="104.418"/>
      <point x="97.75" y="127.71" type="curve"/>
      <point x="91.3936" y="138.977"/>
      <point x="92.7275" y="155.73"/>
      <point x="102.196" y="164.835" type="curve"/>
      <point x="94.3506" y="176.384"/>
      <point x="106.931" y="181.694"/>
      <point x="110.354" y="193.228" type="curve" smooth="yes"/>
      <point x="119.466" y="223.953"/>
      <point x="131.893" y="253.327"/>
      <point x="155.542" y="276.217" type="curve" smooth="yes"/>
      <point x="159.231" y="279.792"/>
      <point x="179.591" y="299.238"/>
      <point x="183.702" y="298.419" type="curve" smooth="yes"/>
      <point x="197.949" y="295.565"/>
      <point x="186.103" y="267.526"/>
      <point x="185.169" y="260.926" type="curve" smooth="yes"/>
      <point x="183.746" y="250.841"/>
      <point x="192.326" y="240.397"/>
      <point x="193.326" y="230.354" type="curve" smooth="yes"/>
      <point x="194.549" y="217.969"/>
      <point x="186.611" y="210.749"/>
      <point x="184.434" y="199.776" type="curve" smooth="yes"/>
      <point x="182.967" y="192.332"/>
      <point x="183.725" y="176.792"/>
      <point x="175.546" y="175.757" type="curve"/>
      <point x="175.546" y="173.572" type="line"/>
      <point x="186.881" y="166.564"/>
      <point x="180.257" y="142.235"/>
      <point x="180.791" y="129.894" type="curve" smooth="yes"/>
      <point x="182.124" y="98.1787"/>
      <point x="181.346" y="65.9307"/>
      <point x="180.812" y="33.7988" type="curve" smooth="yes"/>
      <point x="180.59" y="20.1104"/>
      <point x="178.544" y="2.68164"/>
      <point x="188.301" y="-9.21582" type="curve" smooth="yes"/>
      <point x="194.947" y="-17.3223"/>
      <point x="210.062" y="-17.4463"/>
      <point x="211.951" y="-5.46973" type="curve" smooth="yes"/>
      <point x="215.13" y="14.498"/>
      <point x="199.814" y="43.7598"/>
      <point x="199.948" y="65.9375" type="curve" smooth="yes"/>
      <point x="199.993" y="73.8867"/>
      <point x="207.104" y="78.7852"/>
      <point x="207.637" y="86.2148" type="curve" smooth="yes"/>
      <point x="210.193" y="122.427"/>
      <point x="212.084" y="159.108"/>
      <point x="213.239" y="195.412" type="curve" smooth="yes"/>
      <point x="213.795" y="212.768"/>
      <point x="206.685" y="242.189"/>
      <point x="217.775" y="256.562" type="curve"/>
      <point x="217.775" y="258.746" type="line"/>
      <point x="217.775" y="260.926" type="line"/>
      <point x="213.374" y="266.725"/>
      <point x="213.374" y="270.418"/>
      <point x="217.775" y="276.217" type="curve"/>
      <point x="217.775" y="278.401" type="line"/>
      <point x="197.016" y="305.342"/>
      <point x="242.667" y="315.939"/>
      <point x="251.112" y="335.182" type="curve"/>
      <point x="257.782" y="335.182" type="line"/>
      <point x="287.677" y="256"/>
      <point x="295.322" y="163.07"/>
      <point x="315.06" y="79.6621" type="curve" smooth="yes"/>
      <point x="322.728" y="47.1826"/>
      <point x="327.059" y="-3.01172"/>
      <point x="371.134" y="-7.69141" type="curve"/>
      <point x="376.557" y="-35.2109"/>
      <point x="434.792" y="-91.2402"/>
      <point x="464.486" y="-84.1318" type="curve"/>
      <point x="458.24" y="-71.6748"/>
      <point x="444.191" y="-67.0186"/>
      <point x="433.567" y="-58.4707" type="curve" smooth="yes"/>
      <point x="415.63" y="-44.0195"/>
      <point x="396.896" y="-26.2148"/>
      <point x="380.404" y="-10.6572" type="curve" smooth="yes"/>
      <point x="355.822" y="12.5361"/>
      <point x="338.085" y="73.0479"/>
      <point x="337.796" y="105.87" type="curve"/>
      <point x="340.019" y="105.87" type="line"/>
      <point x="340.019" y="101.501" type="line"/>
      <point x="342.242" y="101.501" type="line"/>
      <point x="326.462" y="161.421"/>
      <point x="303.169" y="224.302"/>
      <point x="302.235" y="289.318" type="curve"/>
      <point x="323.128" y="272.603"/>
      <point x="318.479" y="280.88"/>
      <point x="326.681" y="298.056" type="curve"/>
      <point x="326.681" y="300.24" type="line"/>
      <point x="306.121" y="302.492"/>
      <point x="305.569" y="334.057"/>
      <point x="282.231" y="335.182" type="curve"/>
      <point x="284.699" y="365.704"/>
      <point x="285.051" y="397.998"/>
      <point x="304.854" y="425.975" type="curve" smooth="yes"/>
      <point x="317.523" y="443.906"/>
      <point x="342.64" y="455.09"/>
      <point x="352.13" y="474.214" type="curve"/>
      <point x="338.796" y="478.583" type="line"/>
      <point x="359.289" y="519.807"/>
      <point x="329.128" y="507.601"/>
      <point x="309.08" y="482.58" type="curve" smooth="yes"/>
      <point x="279.741" y="445.967"/>
      <point x="274.496" y="376.323"/>
      <point x="217.775" y="367.938" type="curve"/>
      <point x="217.751" y="455.801" type="line"/>
      <point x="219.999" y="501.631" type="line"/>
      <point x="215.487" y="508.337"/>
      <point x="214.018" y="521.017"/>
      <point x="207.438" y="525.583" type="curve" smooth="yes"/>
      <point x="205.527" y="526.909"/>
      <point x="203.477" y="527.5"/>
      <point x="201.437" y="527.521" type="curve" smooth="yes"/>
    </contour>
    <contour>
      <point x="217.775" y="348.284" type="line"/>
      <point x="224.44" y="348.284" type="line"/>
      <point x="224.44" y="341.73" type="line"/>
      <point x="217.775" y="341.73" type="line"/>
    </contour>
    <contour>
      <point x="176.383" y="330.93" type="curve" smooth="yes"/>
      <point x="186.7" y="330.656"/>
      <point x="187.004" y="320.531"/>
      <point x="166.653" y="304.613" type="curve" smooth="yes"/>
      <point x="160.963" y="300.165"/>
      <point x="154.674" y="296.843"/>
      <point x="148.873" y="292.605" type="curve" smooth="yes"/>
      <point x="139.648" y="285.875"/>
      <point x="133.579" y="277.168"/>
      <point x="122.2" y="274.032" type="curve"/>
      <point x="124.045" y="287.597"/>
      <point x="137.824" y="311.858"/>
      <point x="149.294" y="319.908" type="curve" smooth="yes"/>
      <point x="160.396" y="327.715"/>
      <point x="170.192" y="331.095"/>
    </contour>
    <contour>
      <point x="68.8584" y="191.043" type="line"/>
      <point x="73.3047" y="191.043" type="line"/>
      <point x="71.082" y="180.121" type="line"/>
      <point x="68.8584" y="180.121" type="line"/>
    </contour>
    <contour>
      <point x="66.6357" y="177.938" type="line"/>
      <point x="71.082" y="177.938" type="line"/>
      <point x="71.082" y="171.389" type="line"/>
    </contour>
    <contour>
      <point x="346.688" y="1.04199" type="line"/>
      <point x="348.908" y="-1.14258" type="line"/>
    </contour>
    <contour>
      <point x="371.134" y="-3.32715" type="line"/>
      <point x="368.911" y="-5.51172" type="line"/>
    </contour>
    <contour>
      <point x="42.1855" y="-55.7393" type="curve"/>
      <point x="30.2285" y="-59.5352"/>
      <point x="19.5586" y="-83.5664"/>
      <point x="15.5137" y="-95.0488" type="curve"/>
      <point x="30.3604" y="-97.2764"/>
      <point x="39.4072" y="-67.6895"/>
    </contour>
  </outline>
</glyph>
<glyph name="uni0442" format="2">
  <advance width="367"/>
  <unicode hex="0442"/>
  <outline>
    <contour>
      <point x="110.036" y="453.043" type="curve" smooth="yes"/>
      <point x="113.17" y="448.023"/>
      <point x="110.75" y="435.197"/>
      <point x="117.683" y="425.736" type="curve"/>
      <point x="133.255" y="431.874"/>
      <point x="130.095" y="461.521"/>
      <point x="145.591" y="457.849" type="curve" smooth="yes"/>
      <point x="157.978" y="454.904"/>
      <point x="159.89" y="432.584"/>
      <point x="160.781" y="423.636" type="curve" smooth="yes"/>
      <point x="163.941" y="391.036"/>
      <point x="156.168" y="347.876"/>
      <point x="158.411" y="314.913" type="curve" smooth="yes"/>
      <point x="159.1" y="304.607"/>
      <point x="164.299" y="286.283"/>
      <point x="153.364" y="279.204" type="curve"/>
      <point x="153.364" y="277.104" type="line"/>
      <point x="178.902" y="264.764"/>
      <point x="161.011" y="173.561"/>
      <point x="161.011" y="152.381" type="curve" smooth="yes"/>
      <point x="161.011" y="100.78"/>
      <point x="155.199" y="41.3975"/>
      <point x="167.79" y="-9.35645" type="curve" smooth="yes"/>
      <point x="170.543" y="-20.4473"/>
      <point x="168.886" y="-23.915"/>
      <point x="181.681" y="-29.4688" type="curve" smooth="yes"/>
      <point x="201" y="-37.8438"/>
      <point x="198.451" y="-15.7197"/>
      <point x="189.047" y="-8.5625" type="curve"/>
      <point x="189.047" y="-6.46191" type="line"/>
      <point x="211.984" y="22.1504" type="line"/>
      <point x="201.79" y="22.1504" type="line"/>
      <point x="193.991" y="39.7588"/>
      <point x="187.339" y="76.627"/>
      <point x="204.339" y="91.4668" type="curve"/>
      <point x="188.435" y="121.539"/>
      <point x="196.794" y="188.545"/>
      <point x="201.79" y="220.391" type="curve"/>
      <point x="196.692" y="218.29" type="line"/>
      <point x="196.692" y="275.22"/>
      <point x="195.571" y="342.887"/>
      <point x="200.873" y="400.53" type="curve" smooth="yes"/>
      <point x="202.504" y="418.31"/>
      <point x="201.51" y="446.825"/>
      <point x="210.965" y="462.982" type="curve" smooth="yes"/>
      <point x="218.841" y="476.432"/>
      <point x="259.11" y="465.65"/>
      <point x="273.154" y="468.41" type="curve" smooth="yes"/>
      <point x="281.029" y="469.958"/>
      <point x="287.579" y="476.192"/>
      <point x="296.093" y="475.004" type="curve" smooth="yes"/>
      <point x="304.579" y="473.819"/>
      <point x="310.722" y="467.479"/>
      <point x="317.96" y="464.184" type="curve" smooth="yes"/>
      <point x="322.803" y="461.97"/>
      <point x="335.802" y="460.115"/>
      <point x="334.527" y="467.974" type="curve" smooth="yes"/>
      <point x="331.469" y="486.772"/>
      <point x="285.158" y="493.582"/>
      <point x="267.623" y="496.029" type="curve" smooth="yes"/>
      <point x="255.415" y="497.735"/>
      <point x="246.902" y="491.005"/>
      <point x="235.356" y="490.696" type="curve" smooth="yes"/>
      <point x="184.153" y="489.329"/>
      <point x="133.255" y="492.118"/>
      <point x="82" y="495" type="curve" smooth="yes"/>
      <point x="64.3887" y="495.991"/>
      <point x="31.5361" y="501.942"/>
      <point x="17.9258" y="489.377" type="curve" smooth="yes"/>
      <point x="6.125" y="478.479"/>
      <point x="20.0918" y="466.054"/>
      <point x="22.666" y="455.144" type="curve" smooth="yes"/>
      <point x="27.458" y="434.958"/>
      <point x="9.3623" y="415.547"/>
      <point x="11.9873" y="396.33" type="curve" smooth="yes"/>
      <point x="12.8789" y="389.764"/>
      <point x="19.8135" y="383.898"/>
      <point x="28.7334" y="384.856" type="curve" smooth="yes"/>
      <point x="58.5791" y="388.072"/>
      <point x="35.3945" y="450.731"/>
      <point x="58.7412" y="462.392" type="curve" smooth="yes"/>
      <point x="67.3535" y="466.693"/>
      <point x="99.3779" y="470.114"/>
    </contour>
  </outline>
</glyph>
<glyph name="uni0445" format="2">
  <advance width="304"/>
  <unicode hex="0445"/>
  <outline>
    <contour>
      <point x="132.906" y="232.843" type="curve" smooth="yes"/>
      <point x="64" y="170"/>
      <point x="58" y="162"/>
      <point x="50.0469" y="8.02246" type="curve" smooth="yes"/>
      <point x="49.5967" y="-0.696289"/>
      <point x="55.7998" y="-49.2578"/>
      <point x="76.5625" y="-25.5459" type="curve" smooth="yes"/>
      <point x="87.0518" y="-13.5508"/>
      <point x="67.5439" y="-1.50293"/>
      <point x="71.1553" y="11.8008" type="curve" smooth="yes"/>
      <point x="79.3525" y="42.0039"/>
      <point x="84.0449" y="72.9404"/>
      <point x="95.3564" y="102.485" type="curve" smooth="yes"/>
      <point x="102.391" y="120.858"/>
      <point x="101.981" y="136.306"/>
      <point x="107" y="155" type="curve" smooth="yes"/>
      <point x="112.159" y="174.218"/>
      <point x="141.338" y="222.192"/>
      <point x="169" y="226" type="curve"/>
      <point x="179" y="219" type="line"/>
      <point x="203" y="202" type="line" smooth="yes"/>
      <point x="221" y="188"/>
      <point x="219.694" y="188.799"/>
      <point x="230.79" y="171.048" type="curve" smooth="yes"/>
      <point x="251.24" y="138.332"/>
      <point x="246.654" y="68.3359"/>
      <point x="241.982" y="31.9775" type="curve" smooth="yes"/>
      <point x="240.543" y="20.7734"/>
      <point x="243.013" y="-22.833"/>
      <point x="264.792" y="-18.8828" type="curve" smooth="yes"/>
      <point x="285.619" y="-15.1064"/>
      <point x="274.763" y="43.5762"/>
      <point x="275.043" y="58.4785" type="curve" smooth="yes"/>
      <point x="275.735" y="95.5303"/>
      <point x="281.727" y="142.193"/>
      <point x="268.75" y="177.501" type="curve" smooth="yes"/>
      <point x="266.198" y="184.429"/>
      <point x="269.188" y="199.535"/>
      <point x="263.824" y="205.562" type="curve" smooth="yes"/>
      <point x="257.098" y="213.14"/>
      <point x="243.04" y="204.31"/>
      <point x="233.329" y="210.695" type="curve" smooth="yes"/>
      <point x="218.449" y="220.47"/>
      <point x="211.613" y="246.871"/>
      <point x="191.673" y="244.179" type="curve"/>
      <point x="187.282" y="281.671"/>
      <point x="258.059" y="314.889"/>
      <point x="262.925" y="351.198" type="curve" smooth="yes"/>
      <point x="264.396" y="362.16"/>
      <point x="263.463" y="387.156"/>
      <point x="279.229" y="390.873" type="curve"/>
      <point x="272.741" y="394.651" type="line"/>
      <point x="272.741" y="401.68"/>
      <point x="276.482" y="410.548"/>
      <point x="275.423" y="417.104" type="curve" smooth="yes"/>
      <point x="272.741" y="433.566"/>
      <point x="262.755" y="437.364"/>
      <point x="267.455" y="454.179" type="curve"/>
      <point x="268.723" y="486.747"/>
      <point x="244.969" y="515.749"/>
      <point x="231.844" y="488.908" type="curve" smooth="yes"/>
      <point x="226.091" y="475.5"/>
      <point x="238.721" y="457.97"/>
      <point x="229.486" y="445.661" type="curve"/>
      <point x="229.486" y="443.771" type="line"/>
      <point x="241.144" y="431.321"/>
      <point x="233.293" y="417.773"/>
      <point x="231.974" y="403.956" type="curve" smooth="yes"/>
      <point x="229.248" y="375.54"/>
      <point x="225.076" y="352.285"/>
      <point x="215.776" y="322.859" type="curve" smooth="yes"/>
      <point x="212.9" y="313.785"/>
      <point x="183.93" y="291.227"/>
      <point x="171.646" y="289.186" type="curve" smooth="yes"/>
      <point x="156.29" y="286.635"/>
      <point x="129.277" y="313.128"/>
      <point x="121.838" y="322.859" type="curve" smooth="yes"/>
      <point x="87.9688" y="367.042"/>
      <point x="91.2129" y="425.28"/>
      <point x="90.0234" y="475.89" type="curve"/>
      <point x="103" y="474" type="line"/>
      <point x="106.5" y="489.518"/>
      <point x="83.0117" y="523.626"/>
      <point x="64.8057" y="517.156" type="curve"/>
      <point x="48.4336" y="510.298"/>
      <point x="59.2256" y="479.679"/>
      <point x="60.9775" y="468.332" type="curve" smooth="yes"/>
      <point x="66.2549" y="434.586"/>
      <point x="62.8379" y="396.691"/>
      <point x="61.8857" y="362.534" type="curve" smooth="yes"/>
      <point x="61.4971" y="348.762"/>
      <point x="56.8037" y="330.538"/>
      <point x="62.5137" y="317.304" type="curve" smooth="yes"/>
      <point x="70.3428" y="299.093"/>
      <point x="88.2285" y="317.043"/>
      <point x="97.8096" y="310.493" type="curve" smooth="yes"/>
      <point x="108.753" y="302.994"/>
      <point x="100.621" y="290.481"/>
      <point x="105.573" y="281.296" type="curve" smooth="yes"/>
      <point x="110.778" y="271.641"/>
      <point x="114.983" y="279.674"/>
      <point x="116" y="269" type="curve" smooth="yes"/>
      <point x="117.62" y="251.993"/>
      <point x="81.5918" y="235.061"/>
      <point x="66" y="231" type="curve" smooth="yes"/>
      <point x="34.25" y="222.731"/>
      <point x="50.3477" y="192.041"/>
      <point x="69.0742" y="202.348" type="curve" smooth="yes"/>
      <point x="89.5039" y="213.592"/>
      <point x="137.335" y="236.882"/>
    </contour>
  </outline>
</glyph>
<glyph name="uni0447" format="2">
  <advance width="304"/>
  <unicode hex="0447"/>
  <outline>
    <contour>
      <point x="22.3984" y="506.967" type="line"/>
      <point x="25.6357" y="471.46"/>
      <point x="21.5693" y="468.967"/>
      <point x="22.3018" y="433.075" type="curve" smooth="yes"/>
      <point x="22.7158" y="412.367"/>
      <point x="27.251" y="363.533"/>
      <point x="22.7158" y="343.443" type="curve" smooth="yes"/>
      <point x="20.1367" y="332.05"/>
      <point x="7.39551" y="330.665"/>
      <point x="5.11816" y="319.691" type="curve" smooth="yes"/>
      <point x="1.76855" y="303.444"/>
      <point x="15.0957" y="293.11"/>
      <point x="27.085" y="291.915" type="curve"/>
      <point x="21.2129" y="277.418"/>
      <point x="20.3633" y="248.846"/>
      <point x="37.0947" y="240.735" type="curve" smooth="yes"/>
      <point x="44.2656" y="237.264"/>
      <point x="61.6953" y="254.954"/>
      <point x="74.2109" y="253.403" type="curve" smooth="yes"/>
      <point x="113.076" y="248.581"/>
      <point x="167.825" y="228.594"/>
      <point x="196.884" y="199.65" type="curve"/>
      <point x="198.767" y="199.65" type="line"/>
      <point x="206.973" y="170.121"/>
      <point x="203.736" y="135.692"/>
      <point x="203.021" y="105.235" type="curve" smooth="yes"/>
      <point x="202.776" y="94.458"/>
      <point x="206.841" y="84.5078"/>
      <point x="200.649" y="75.1973" type="curve"/>
      <point x="200.649" y="73.0518" type="line"/>
      <point x="200.649" y="70.9053" type="line"/>
      <point x="207.744" y="61.0156"/>
      <point x="211.002" y="38.1816"/>
      <point x="208.179" y="25.8438" type="curve"/>
      <point x="223.028" y="10.3691"/>
      <point x="214.387" y="-16.6064"/>
      <point x="224.851" y="-31.376" type="curve" smooth="yes"/>
      <point x="236.237" y="-47.4326"/>
      <point x="245.501" y="-16.666"/>
      <point x="245.614" y="-10.6328" type="curve" smooth="yes"/>
      <point x="246.01" y="12.2021"/>
      <point x="243.092" y="34.6865"/>
      <point x="244.239" y="58.0322" type="curve" smooth="yes"/>
      <point x="244.635" y="66.1025"/>
      <point x="240.4" y="76.1709"/>
      <point x="246.291" y="81.6357" type="curve"/>
      <point x="246.291" y="83.7783" type="line"/>
      <point x="229.164" y="101.819"/>
      <point x="238.911" y="163.241"/>
      <point x="238.761" y="188.92" type="curve" smooth="yes"/>
      <point x="238.703" y="199.792"/>
      <point x="239.205" y="215.38"/>
      <point x="231" y="223.25" type="curve"/>
      <point x="235" y="225.396" type="line"/>
      <point x="242.526" y="229.688" type="line"/>
      <point x="235" y="249" type="line"/>
      <point x="254.234" y="264.49"/>
      <point x="231.687" y="317.142"/>
      <point x="246.291" y="339.122" type="curve"/>
      <point x="246.291" y="341.269" type="line"/>
      <point x="229.842" y="366.032"/>
      <point x="255.852" y="445.576"/>
      <point x="248.757" y="472.602" type="curve" smooth="yes"/>
      <point x="245.707" y="484.163"/>
      <point x="217.869" y="518.242"/>
      <point x="205.015" y="508.767" type="curve" smooth="yes"/>
      <point x="199.764" y="504.894"/>
      <point x="200.535" y="495.61"/>
      <point x="196.884" y="490.137" type="curve"/>
      <point x="196.884" y="487.99" type="line"/>
      <point x="204.507" y="476.635"/>
      <point x="199.784" y="458.684"/>
      <point x="201.196" y="445.075" type="curve" smooth="yes"/>
      <point x="205.487" y="403.504"/>
      <point x="211.771" y="303.437"/>
      <point x="200.649" y="263.457" type="curve"/>
      <point x="117.421" y="303.742" type="line"/>
      <point x="93" y="318" type="line"/>
      <point x="87.8057" y="315.667"/>
      <point x="69.6045" y="324.049"/>
      <point x="64.0332" y="327.665" type="curve" smooth="yes"/>
      <point x="53.6521" y="334.403"/>
      <point x="49.8242" y="430.699"/>
      <point x="59.667" y="439.514" type="curve"/>
      <point x="59.667" y="441.66" type="line"/>
      <point x="54.0234" y="441.66" type="line"/>
      <point x="62.5107" y="459.76" type="line"/>
      <point x="51.2197" y="506.967" type="line"/>
    </contour>
    <contour>
      <point x="71.9756" y="289.975" type="curve" smooth="yes"/>
      <point x="88.5771" y="289.701"/>
      <point x="149.801" y="272.75"/>
      <point x="160" y="260" type="curve" smooth="yes"/>
      <point x="162.447" y="256.946"/>
      <point x="180" y="262"/>
      <point x="167.437" y="247.146" type="curve" smooth="yes"/>
      <point x="162.241" y="241.004"/>
      <point x="62.0908" y="276.1"/>
      <point x="56.4453" y="282.48" type="curve" smooth="yes"/>
      <point x="47.4439" y="292.654"/>
      <point x="55.8428" y="294.151"/>
      <point x="66.6279" y="296.44" type="curve" smooth="yes"/>
      <point x="68.4805" y="296.834"/>
      <point x="70.2588" y="290.003"/>
    </contour>
  </outline>
</glyph>
<glyph name="uni044E" format="2">
  <advance width="379"/>
  <unicode hex="044E"/>
  <outline>
    <contour>
      <point x="251.009" y="526.965" type="curve" smooth="yes"/>
      <point x="250.606" y="527.01"/>
      <point x="250.198" y="527.029"/>
      <point x="249.78" y="527.02" type="curve" smooth="yes"/>
      <point x="237.557" y="526.748"/>
      <point x="240.006" y="502.887"/>
      <point x="236.687" y="494.158" type="curve" smooth="yes"/>
      <point x="233.613" y="486.098"/>
      <point x="225.432" y="486"/>
      <point x="220.55" y="480.015" type="curve" smooth="yes"/>
      <point x="209.896" y="466.94"/>
      <point x="212.084" y="434.148"/>
      <point x="197.705" y="427.903" type="curve"/>
      <point x="197.587" y="425.478" type="line"/>
      <point x="207.062" y="413.74"/>
      <point x="199.267" y="392.78"/>
      <point x="194.05" y="379.447" type="curve" smooth="yes"/>
      <point x="182.033" y="348.861"/>
      <point x="154.114" y="268.558"/>
      <point x="121.448" y="271.138" type="curve"/>
      <point x="121.331" y="268.712" type="line"/>
      <point x="129.893" y="268.298" type="line"/>
      <point x="129.775" y="265.876" type="line"/>
      <point x="110.979" y="256.619"/>
      <point x="89.6172" y="241.731"/>
      <point x="80.6533" y="270.681" type="curve"/>
      <point x="90.5742" y="272.598"/>
      <point x="85.1113" y="287.836"/>
      <point x="86.2275" y="297.154" type="curve"/>
      <point x="78.0137" y="304.847" type="line"/>
      <point x="90.5566" y="311.708"/>
      <point x="78.376" y="328.256"/>
      <point x="82.998" y="338.64" type="curve" smooth="yes"/>
      <point x="91.7168" y="358.274"/>
      <point x="84.6992" y="370.215"/>
      <point x="84.5537" y="392.052" type="curve" smooth="yes"/>
      <point x="84.4199" y="411.91"/>
      <point x="91.3545" y="429.247"/>
      <point x="89.5127" y="450.161" type="curve" smooth="yes"/>
      <point x="88.7168" y="459.427"/>
      <point x="93.5674" y="479.025"/>
      <point x="86.1973" y="485.03" type="curve" smooth="yes"/>
      <point x="73.3564" y="495.51"/>
      <point x="65.6299" y="470.138"/>
      <point x="55.791" y="466.379" type="curve"/>
      <point x="55.7979" y="475.381"/>
      <point x="59.54" y="542.495"/>
      <point x="38.3799" y="517.222" type="curve" smooth="yes"/>
      <point x="16.6045" y="491.197"/>
      <point x="20.5137" y="430.136"/>
      <point x="20.1836" y="397.599" type="curve" smooth="yes"/>
      <point x="20.0693" y="385.479"/>
      <point x="22.1875" y="365.869"/>
      <point x="11.9678" y="359.1" type="curve"/>
      <point x="11.8496" y="356.673" type="line"/>
      <point x="18.2744" y="356.362" type="line"/>
      <point x="13.2871" y="342.014" type="line"/>
      <point x="13.1699" y="339.593" type="line"/>
      <point x="12.7227" y="313.065" type="line"/>
      <point x="17.0596" y="251.916" type="line"/>
      <point x="5.57715" y="230.554" type="line"/>
      <point x="13.0195" y="203.455" type="line"/>
      <point x="12.9023" y="201.029" type="line"/>
      <point x="18.5156" y="191.536"/>
      <point x="14.2432" y="180.373"/>
      <point x="14.6104" y="169.34" type="curve" smooth="yes"/>
      <point x="15.5479" y="141.275"/>
      <point x="22.2363" y="97.1094"/>
      <point x="12.0557" y="71.2246" type="curve"/>
      <point x="30.4092" y="50.0576"/>
      <point x="11.4102" y="-12.6055"/>
      <point x="46.6016" y="-13.1055" type="curve"/>
      <point x="63.9502" y="27.4355"/>
      <point x="50.0635" y="99.6777"/>
      <point x="52.7891" y="144.899" type="curve" smooth="yes"/>
      <point x="53.5732" y="158.04"/>
      <point x="42.5635" y="194.05"/>
      <point x="52.292" y="203.065" type="curve" smooth="yes"/>
      <point x="58.5596" y="208.852"/>
      <point x="65.4268" y="203.088"/>
      <point x="65.8721" y="194.987" type="curve" smooth="yes"/>
      <point x="68.2441" y="152.678"/>
      <point x="66.8135" y="106.117"/>
      <point x="73.0088" y="63.415" type="curve" smooth="yes"/>
      <point x="74.4561" y="53.4336"/>
      <point x="84.6816" y="17.2373"/>
      <point x="94.2627" y="40.502" type="curve"/>
      <point x="79.1816" y="52.585"/>
      <point x="78.6699" y="87.7461"/>
      <point x="80.0283" y="107.371" type="curve" smooth="yes"/>
      <point x="80.6016" y="115.67"/>
      <point x="78.4258" y="129.67"/>
      <point x="87.8994" y="130.763" type="curve"/>
      <point x="85.9561" y="158.592" type="line"/>
      <point x="83.8145" y="158.695" type="line"/>
      <point x="91.1094" y="138.145" type="line"/>
      <point x="88.9727" y="138.248" type="line"/>
      <point x="79.625" y="205.09" type="line"/>
      <point x="96.707" y="208.646"/>
      <point x="141.061" y="240.961"/>
      <point x="155.875" y="232.681" type="curve" smooth="yes"/>
      <point x="171.356" y="224.019"/>
      <point x="169.963" y="194.334"/>
      <point x="174.931" y="178.597" type="curve" smooth="yes"/>
      <point x="188.397" y="135.84"/>
      <point x="189.557" y="94.5947"/>
      <point x="211.963" y="56.9512" type="curve" smooth="yes"/>
      <point x="218.452" y="46.0518"/>
      <point x="247.716" y="25.8916"/>
      <point x="247.134" y="13.873" type="curve" smooth="yes"/>
      <point x="246.662" y="3.70215"/>
      <point x="233.85" y="-6.90332"/>
      <point x="228.403" y="-14.3438" type="curve"/>
      <point x="231.051" y="-36.3525"/>
      <point x="236.157" y="-19.583"/>
      <point x="236.157" y="-19.583" type="curve"/>
      <point x="238.182" y="-22.1123" type="line"/>
      <point x="231.053" y="-36.3525" type="line"/>
      <point x="266.288" y="-39.0303"/>
      <point x="281.655" y="20.4531"/>
      <point x="305.576" y="40.2666" type="curve"/>
      <point x="314.896" y="90.8711" type="line"/>
      <point x="343.754" y="188.976" type="line"/>
      <point x="347.729" y="232.544" type="line"/>
      <point x="333.02" y="235.443"/>
      <point x="348.633" y="300.389"/>
      <point x="344.59" y="315.288" type="curve" smooth="yes"/>
      <point x="341.366" y="327.167"/>
      <point x="328.536" y="332.794"/>
      <point x="322.47" y="343.565" type="curve" smooth="yes"/>
      <point x="298.938" y="385.429"/>
      <point x="277.52" y="439.944"/>
      <point x="270.17" y="487.61" type="curve" smooth="yes"/>
      <point x="268.46" y="498.663"/>
      <point x="263.467" y="525.563"/>
    </contour>
    <contour>
      <point x="246.688" y="442.201" type="curve" smooth="yes"/>
      <point x="246.916" y="442.188"/>
      <point x="247.147" y="442.152"/>
      <point x="247.385" y="442.093" type="curve" smooth="yes"/>
      <point x="256.587" y="439.788"/>
      <point x="269.38" y="380.383"/>
      <point x="274.607" y="369.989" type="curve" smooth="yes"/>
      <point x="286.041" y="347.298"/>
      <point x="294.903" y="331.91"/>
      <point x="305.94" y="309.439" type="curve" smooth="yes"/>
      <point x="320.83" y="279.125"/>
      <point x="320.603" y="207.94"/>
      <point x="310" y="176" type="curve"/>
      <point x="307" y="180" type="line"/>
      <point x="305.151" y="183.162" type="line"/>
      <point x="303.011" y="183.266" type="line"/>
      <point x="303.472" y="131.158"/>
      <point x="286.266" y="82.3887"/>
      <point x="260.385" y="37.5898" type="curve"/>
      <point x="247.693" y="41.8535"/>
      <point x="237.56" y="49.7061"/>
      <point x="232.198" y="63.959" type="curve" smooth="yes"/>
      <point x="227.409" y="76.7549"/>
      <point x="240.361" y="92.6113"/>
      <point x="231.345" y="102.205" type="curve" smooth="yes"/>
      <point x="204.69" y="130.564"/>
      <point x="218.459" y="161.04"/>
      <point x="205.448" y="189.278" type="curve" smooth="yes"/>
      <point x="200.863" y="199.203"/>
      <point x="189.502" y="212.25"/>
      <point x="191.039" y="224.047" type="curve" smooth="yes"/>
      <point x="196.508" y="266.092"/>
      <point x="241.936" y="297.578"/>
      <point x="221.312" y="339.24" type="curve"/>
      <point x="219.171" y="339.344" type="line"/>
      <point x="212.398" y="332.377" type="line"/>
      <point x="213.93" y="364.012"/>
      <point x="226.611" y="387.084"/>
      <point x="235.433" y="416.355" type="curve" smooth="yes"/>
      <point x="237.014" y="421.536"/>
      <point x="239.626" y="442.621"/>
    </contour>
    <contour>
      <point x="65.3193" y="441.606" type="curve"/>
      <point x="71.7441" y="441.295" type="line"/>
      <point x="78.6006" y="316.973" type="line"/>
      <point x="71.2412" y="297.88" type="line"/>
      <point x="71.124" y="295.454" type="line"/>
      <point x="79.374" y="284.571"/>
      <point x="68.9297" y="234.623"/>
      <point x="50.1113" y="246.192" type="curve" smooth="yes"/>
      <point x="42.6094" y="250.795"/>
      <point x="46.4199" y="267.01"/>
      <point x="46.3242" y="274.774" type="curve" smooth="yes"/>
      <point x="46.085" y="294.668"/>
      <point x="39.3818" y="361.452"/>
      <point x="53.4707" y="374.107" type="curve"/>
      <point x="53.5889" y="376.533" type="line"/>
      <point x="53.7061" y="378.959" type="line"/>
      <point x="37.9092" y="396.2"/>
      <point x="64.6211" y="423.183"/>
    </contour>
    <contour>
      <point x="77.6006" y="207.62" type="line"/>
      <point x="72.9658" y="200.554" type="line"/>
    </contour>
  </outline>
</glyph>
